<svg width="639" height="81" viewBox="0 0 639 81" fill="none" xmlns="http://www.w3.org/2000/svg">
<path d="M625.707 16.0149C622.852 16.0149 620.493 15.3941 618.631 14.1527C616.769 12.9112 615.838 11.2352 615.838 9.12475C615.838 7.07634 616.521 5.40036 617.886 4.09682C619.252 2.73121 620.897 1.70701 622.821 1.02421C624.807 0.341403 626.67 0 628.408 0C631.263 0 633.622 0.620731 635.484 1.86219C637.346 3.04158 638.277 4.71756 638.277 6.89012C638.277 8.69024 637.688 10.3041 636.508 11.7318C635.329 13.0974 633.777 14.1527 631.853 14.8976C629.99 15.6424 627.942 16.0149 625.707 16.0149ZM620.121 80.2606C616.148 80.2606 613.324 79.2674 611.648 77.2811C609.972 75.2947 609.134 72.4393 609.134 68.715C609.134 67.3493 609.32 65.4561 609.693 63.0353C610.065 60.5523 610.562 57.8211 611.182 54.8416C611.803 51.8 612.455 48.7274 613.138 45.6238C613.82 42.5201 614.472 39.6027 615.093 36.8714L609.879 29.0502C613.169 27.0639 616.303 25.4189 619.283 24.1154C622.262 22.7498 625.242 22.067 628.221 22.067C630.829 22.067 632.629 22.6257 633.622 23.743C634.677 24.8603 635.205 26.5983 635.205 28.9571C635.205 29.8882 634.956 31.409 634.46 33.5195C634.025 35.63 633.467 38.1129 632.784 40.9683C632.101 43.8236 631.418 46.8342 630.735 49.9999C630.053 53.1036 629.463 56.1762 628.966 59.2178C628.532 62.1973 628.315 64.8664 628.315 67.2252C628.315 69.0874 628.532 70.7634 628.966 72.2531C629.463 73.6808 630.208 74.8292 631.201 75.6982C627.725 78.7398 624.031 80.2606 620.121 80.2606Z" fill="#FFFAB5" style="fill:#FFFAB5;fill:color(display-p3 1.0000 0.9805 0.7079);fill-opacity:1;"/>
<path d="M555.658 80.2605C552.182 80.2605 549.11 79.3605 546.44 77.5603C543.833 75.7602 541.816 73.2152 540.388 69.9254C538.961 66.6355 538.247 62.7869 538.247 58.3797C538.247 53.2277 539.147 48.448 540.947 44.0408C542.809 39.6337 545.354 35.7851 548.582 32.4952C551.872 29.2054 555.72 26.6604 560.128 24.8602C564.535 22.9981 569.314 22.067 574.467 22.067C575.956 22.067 577.229 22.129 578.284 22.2532C579.401 22.3152 580.581 22.5015 581.822 22.8118C582.195 24.5499 582.412 26.0707 582.474 27.3742C583.902 26.4431 585.484 25.7293 587.223 25.2327C588.961 24.674 590.575 24.3947 592.064 24.3947C596.596 24.3947 598.861 26.8466 598.861 31.7504C598.861 33.3643 598.551 35.5679 597.93 38.3612C597.372 41.0924 596.689 44.134 595.882 47.4859C595.137 50.7758 594.454 54.1588 593.833 57.6349C593.275 61.0489 592.995 64.2457 592.995 67.2252C592.995 71.2599 593.958 74.0842 595.882 75.6981C592.406 78.7397 588.712 80.2605 584.802 80.2605C581.201 80.2605 578.532 79.1432 576.794 76.9086C575.118 74.6739 574.28 71.1978 574.28 66.4803L573.349 66.0147C571.673 70.484 569.252 73.9911 566.087 76.5361C562.983 79.0191 559.507 80.2605 555.658 80.2605ZM563.014 63.3146C565.435 63.3146 567.794 62.4455 570.09 60.7075C572.387 58.9694 574.311 56.5796 575.863 53.538C576.111 51.1172 576.36 48.8515 576.608 46.741C576.918 44.5685 577.291 42.2718 577.725 39.8509C578.222 37.4301 578.812 34.5747 579.494 31.2848C576.329 31.2848 573.318 31.9055 570.463 33.147C567.67 34.3264 565.156 35.9713 562.921 38.0818C560.686 40.1923 558.917 42.6132 557.614 45.3444C556.372 48.0135 555.751 50.8379 555.751 53.8174C555.751 56.859 556.372 59.2177 557.614 60.8937C558.917 62.5076 560.717 63.3146 563.014 63.3146Z" fill="#FFFAB5" style="fill:#FFFAB5;fill:color(display-p3 1.0000 0.9805 0.7079);fill-opacity:1;"/>
<path d="M518.134 80.2605C515.279 80.2605 512.889 79.3294 510.965 77.4672C509.103 75.543 508.172 73.2152 508.172 70.484C508.172 68.3735 508.699 66.4492 509.755 64.7112C510.81 62.9111 512.207 61.4524 513.945 60.335C515.745 59.2177 517.731 58.6591 519.904 58.6591C522.759 58.6591 525.118 59.6212 526.98 61.5455C528.904 63.4077 529.866 65.7044 529.866 68.4356C529.866 70.484 529.339 72.4083 528.283 74.2084C527.228 76.0085 525.801 77.4672 524 78.5845C522.262 79.7019 520.307 80.2605 518.134 80.2605Z" fill="#FFFAB5" style="fill:#FFFAB5;fill:color(display-p3 1.0000 0.9805 0.7079);fill-opacity:1;"/>
<path d="M470.967 80.2605C465.132 80.2605 460.477 79.795 457.001 78.8639C453.587 77.9949 451.135 76.7844 449.645 75.2326C448.155 73.6808 447.41 71.9738 447.41 70.1116C447.41 68.6839 447.783 67.0389 448.528 65.1768C449.335 63.3146 450.483 61.5455 451.973 59.8695C453.028 61.2972 454.425 62.6318 456.163 63.8732C457.963 65.0526 459.918 66.0147 462.029 66.7596C464.139 67.4424 466.188 67.7838 468.174 67.7838C470.346 67.7838 472.302 67.2872 474.04 66.2941C475.778 65.2388 476.926 63.4697 477.485 60.9868C467.926 59.8695 461.066 57.759 456.908 54.6554C452.749 51.4896 450.669 47.1135 450.669 41.5269C450.669 37.9887 451.507 34.9782 453.183 32.4952C454.859 30.0123 457.094 28.026 459.887 26.5362C462.742 24.9844 465.97 23.8671 469.57 23.1843C473.233 22.4394 477.019 22.067 480.93 22.067C484.592 22.067 487.851 22.5635 490.706 23.5567C493.562 24.4878 495.796 25.7603 497.41 27.3742C499.024 28.9881 499.831 30.8503 499.831 32.9608C499.831 35.9403 498.745 38.206 496.572 39.7578C494.462 41.3096 492.041 42.0855 489.31 42.0855C487.448 42.0855 485.492 41.4648 483.444 40.2233C481.395 38.9819 479.75 37.0576 478.509 34.4506C476.212 35.1334 474.381 36.1265 473.016 37.4301C471.65 38.6715 470.44 40.4716 469.384 42.8304C476.461 43.8857 482.078 45.2202 486.237 46.8341C490.396 48.448 493.376 50.4965 495.176 52.9794C497.038 55.4002 497.969 58.4108 497.969 62.011C497.969 64.8664 497.317 67.3493 496.014 69.4598C494.772 71.5703 493.127 73.3083 491.079 74.6739C489.03 76.0395 486.796 77.1258 484.375 77.9328C481.954 78.8018 479.564 79.3915 477.206 79.7019C474.847 80.0743 472.767 80.2605 470.967 80.2605Z" fill="#FFFAB5" style="fill:#FFFAB5;fill:color(display-p3 1.0000 0.9805 0.7079);fill-opacity:1;"/>
<path d="M414.85 80.2605C409.45 80.2605 404.763 79.2363 400.791 77.1879C396.88 75.0774 393.839 72.191 391.666 68.5287C389.555 64.8664 388.5 60.6144 388.5 55.7727C388.5 50.7447 389.4 46.1824 391.2 42.0855C393.001 37.9266 395.546 34.3574 398.835 31.3779C402.125 28.3984 405.943 26.1017 410.288 24.4878C414.695 22.8739 419.444 22.067 424.534 22.067C430.058 22.067 434.31 23.1222 437.29 25.2327C440.331 27.2811 441.852 29.8571 441.852 32.9608C441.852 35.9403 440.766 38.206 438.593 39.7578C436.483 41.3096 434.062 42.0855 431.331 42.0855C429.468 42.0855 427.513 41.4648 425.465 40.2233C423.416 38.9819 421.771 37.0576 420.53 34.4506C417.799 35.5679 415.471 37.3059 413.547 39.6647C411.685 41.9614 410.257 44.5374 409.264 47.3928C408.333 50.1861 407.867 52.9483 407.867 55.6796C407.867 59.3419 408.643 62.5076 410.195 65.1768C411.747 67.7838 414.043 69.0874 417.085 69.0874C419.195 69.0874 421.12 68.2804 422.858 66.6665C424.596 64.9905 425.465 62.3524 425.465 58.7522C429.686 58.7522 433.007 59.2177 435.428 60.1488C437.848 61.0799 439.059 62.7559 439.059 65.1768C439.059 67.4114 438.066 69.7081 436.079 72.0669C434.093 74.3636 431.3 76.3189 427.699 77.9328C424.099 79.4846 419.816 80.2605 414.85 80.2605Z" fill="#FFFAB5" style="fill:#FFFAB5;fill:color(display-p3 1.0000 0.9805 0.7079);fill-opacity:1;"/>
<path d="M370.838 16.0149C367.982 16.0149 365.624 15.3941 363.761 14.1527C361.899 12.9112 360.968 11.2352 360.968 9.12475C360.968 7.07634 361.651 5.40036 363.017 4.09682C364.382 2.73121 366.027 1.70701 367.951 1.02421C369.938 0.341403 371.8 0 373.538 0C376.393 0 378.752 0.620731 380.614 1.86219C382.477 3.04158 383.408 4.71756 383.408 6.89012C383.408 8.69024 382.818 10.3041 381.639 11.7318C380.459 13.0974 378.907 14.1527 376.983 14.8976C375.121 15.6424 373.072 16.0149 370.838 16.0149ZM365.251 80.2606C361.279 80.2606 358.454 79.2674 356.778 77.2811C355.102 75.2947 354.264 72.4393 354.264 68.715C354.264 67.3493 354.45 65.4561 354.823 63.0353C355.195 60.5523 355.692 57.8211 356.313 54.8416C356.933 51.8 357.585 48.7274 358.268 45.6238C358.951 42.5201 359.603 39.6027 360.223 36.8714L355.009 29.0502C358.299 27.0639 361.434 25.4189 364.413 24.1154C367.393 22.7498 370.372 22.067 373.352 22.067C375.959 22.067 377.759 22.6257 378.752 23.743C379.807 24.8603 380.335 26.5983 380.335 28.9571C380.335 29.8882 380.087 31.409 379.59 33.5195C379.156 35.63 378.597 38.1129 377.914 40.9683C377.231 43.8236 376.549 46.8342 375.866 49.9999C375.183 53.1036 374.593 56.1762 374.097 59.2178C373.662 62.1973 373.445 64.8664 373.445 67.2252C373.445 69.0874 373.662 70.7634 374.097 72.2531C374.593 73.6808 375.338 74.8292 376.331 75.6982C372.855 78.7398 369.162 80.2606 365.251 80.2606Z" fill="#FFFAB5" style="fill:#FFFAB5;fill:color(display-p3 1.0000 0.9805 0.7079);fill-opacity:1;"/>
<path d="M258.933 80.2605C255.022 80.2605 252.229 79.2674 250.553 77.281C248.877 75.2947 248.039 72.4393 248.039 68.7149C248.039 67.4114 248.225 65.425 248.598 62.7559C248.97 60.0247 249.436 57.0141 249.994 53.7243C250.615 50.3723 251.267 47.0204 251.95 43.6684C252.633 40.3165 253.284 37.3369 253.905 34.7299L249.063 27.2811C251.608 25.8534 254.34 24.643 257.257 23.6498C260.237 22.5946 263.247 22.067 266.289 22.067C268.896 22.067 270.82 22.7187 272.061 24.0223C273.303 25.2637 273.924 26.9707 273.924 29.1433C273.924 30.7572 273.706 32.4332 273.272 34.1712C272.837 35.9093 272.341 37.399 271.782 38.6405L272.713 39.106C276.376 32.8366 280.224 28.4295 284.259 25.8845C288.294 23.3395 292.577 22.067 297.108 22.067C300.398 22.067 303.098 22.9049 305.209 24.5809C307.319 26.1948 308.374 28.8329 308.374 32.4952C308.374 34.3574 308.064 36.4059 307.443 38.6405L308.374 39.106C312.037 32.8366 315.885 28.4295 319.92 25.8845C323.955 23.3395 328.238 22.067 332.769 22.067C336.555 22.067 339.38 22.9981 341.242 24.8602C343.104 26.6604 344.035 29.4847 344.035 33.3332C344.035 36.6852 343.57 40.2544 342.639 44.0408C341.77 47.7652 340.87 51.6138 339.938 55.5865C339.007 59.4971 338.542 63.3766 338.542 67.2252C338.542 71.0737 339.194 73.898 340.497 75.6981C337.207 78.7397 333.793 80.2605 330.255 80.2605C326.344 80.2605 323.551 79.2674 321.875 77.281C320.199 75.2947 319.361 72.4393 319.361 68.7149C319.361 66.6665 319.641 64.4008 320.199 61.9179C320.758 59.3729 321.41 56.7969 322.155 54.1898C322.899 51.5827 323.551 49.1308 324.11 46.8341C324.668 44.5374 324.948 42.5511 324.948 40.8751C324.948 39.5716 324.699 38.5474 324.203 37.8025C323.768 37.0576 322.961 36.6852 321.782 36.6852C320.106 36.6852 318.182 37.4301 316.009 38.9198C313.899 40.4096 311.819 42.5201 309.771 45.2513C307.785 47.9204 306.14 51.1172 304.836 54.8416C303.533 58.566 302.881 62.6938 302.881 67.2252C302.881 71.0737 303.533 73.898 304.836 75.6981C301.546 78.7397 298.132 80.2605 294.594 80.2605C290.683 80.2605 287.89 79.2674 286.214 77.281C284.538 75.2947 283.7 72.4393 283.7 68.7149C283.7 66.6665 283.98 64.4008 284.538 61.9179C285.097 59.3729 285.749 56.7969 286.493 54.1898C287.238 51.5827 287.89 49.1308 288.449 46.8341C289.007 44.5374 289.287 42.5511 289.287 40.8751C289.287 39.5716 289.038 38.5474 288.542 37.8025C288.107 37.0576 287.3 36.6852 286.121 36.6852C284.445 36.6852 282.521 37.4301 280.348 38.9198C278.238 40.4096 276.158 42.5201 274.11 45.2513C272.124 47.9204 270.479 51.1172 269.175 54.8416C267.872 58.566 267.22 62.6938 267.22 67.2252C267.22 71.0737 267.872 73.898 269.175 75.6981C265.885 78.7397 262.471 80.2605 258.933 80.2605Z" fill="#FFFAB5" style="fill:#FFFAB5;fill:color(display-p3 1.0000 0.9805 0.7079);fill-opacity:1;"/>
<path d="M195.495 80.2605C192.019 80.2605 188.946 79.3605 186.277 77.5603C183.67 75.7602 181.652 73.2152 180.225 69.9254C178.797 66.6355 178.083 62.7869 178.083 58.3797C178.083 53.2277 178.983 48.448 180.783 44.0408C182.646 39.6337 185.191 35.7851 188.418 32.4952C191.708 29.2054 195.557 26.6604 199.964 24.8602C204.371 22.9981 209.151 22.067 214.303 22.067C215.793 22.067 217.065 22.129 218.12 22.2532C219.238 22.3152 220.417 22.5015 221.659 22.8118C222.031 24.5499 222.248 26.0707 222.31 27.3742C223.738 26.4431 225.321 25.7293 227.059 25.2327C228.797 24.674 230.411 24.3947 231.901 24.3947C236.432 24.3947 238.698 26.8466 238.698 31.7504C238.698 33.3643 238.387 35.5679 237.767 38.3612C237.208 41.0924 236.525 44.134 235.718 47.4859C234.973 50.7758 234.29 54.1588 233.67 57.6349C233.111 61.0489 232.832 64.2457 232.832 67.2252C232.832 71.2599 233.794 74.0842 235.718 75.6981C232.242 78.7397 228.549 80.2605 224.638 80.2605C221.038 80.2605 218.369 79.1432 216.631 76.9086C214.955 74.6739 214.117 71.1978 214.117 66.4803L213.186 66.0147C211.51 70.484 209.089 73.9911 205.923 76.5361C202.819 79.0191 199.343 80.2605 195.495 80.2605ZM202.85 63.3146C205.271 63.3146 207.63 62.4455 209.927 60.7075C212.223 58.9694 214.148 56.5796 215.7 53.538C215.948 51.1172 216.196 48.8515 216.444 46.741C216.755 44.5685 217.127 42.2718 217.562 39.8509C218.058 37.4301 218.648 34.5747 219.331 31.2848C216.165 31.2848 213.155 31.9055 210.299 33.147C207.506 34.3264 204.992 35.9713 202.757 38.0818C200.523 40.1923 198.754 42.6132 197.45 45.3444C196.209 48.0135 195.588 50.8379 195.588 53.8174C195.588 56.859 196.209 59.2177 197.45 60.8937C198.754 62.5076 200.554 63.3146 202.85 63.3146Z" fill="#FFFAB5" style="fill:#FFFAB5;fill:color(display-p3 1.0000 0.9805 0.7079);fill-opacity:1;"/>
<path d="M143.984 80.2605C138.211 80.2605 133.338 79.2363 129.366 77.1879C125.393 75.1395 122.383 72.2841 120.334 68.6218C118.348 64.8974 117.355 60.6144 117.355 55.7727C117.355 50.7447 118.255 46.1824 120.055 42.0855C121.917 37.9266 124.493 34.3574 127.783 31.3779C131.073 28.3984 134.89 26.1017 139.235 24.4878C143.643 22.8739 148.391 22.067 153.481 22.067C159.502 22.067 163.941 23.4015 166.796 26.0707C169.651 28.7398 171.079 32.0918 171.079 36.1265C171.079 39.6026 169.931 42.8925 167.634 45.9962C165.399 49.0377 161.768 51.5207 156.74 53.4449C151.712 55.3071 145.008 56.2693 136.628 56.3313C136.815 60.304 137.715 63.4387 139.329 65.7354C141.004 67.97 143.084 69.0874 145.567 69.0874C146.808 69.0874 148.112 68.808 149.477 68.2494C150.843 67.6286 151.991 66.5734 152.923 65.0836C153.854 63.5318 154.319 61.4213 154.319 58.7522C158.54 58.7522 161.861 59.2177 164.282 60.1488C166.703 61.0799 167.913 62.7559 167.913 65.1768C167.913 67.4114 166.951 69.7081 165.027 72.0669C163.103 74.3636 160.34 76.3189 156.74 77.9328C153.202 79.4846 148.95 80.2605 143.984 80.2605ZM137.466 48.8826C141.998 48.5101 145.629 47.6721 148.36 46.3686C151.091 45.0651 153.078 43.5753 154.319 41.8993C155.561 40.2233 156.181 38.6715 156.181 37.2438C156.181 36.0024 155.809 34.9782 155.064 34.1712C154.319 33.3643 153.264 32.9608 151.898 32.9608C149.664 32.9608 147.584 33.7367 145.66 35.2885C143.736 36.8404 142.06 38.8577 140.632 41.3407C139.266 43.7615 138.211 46.2755 137.466 48.8826Z" fill="#FFFAB5" style="fill:#FFFAB5;fill:color(display-p3 1.0000 0.9805 0.7079);fill-opacity:1;"/>
<path d="M82.3432 80.2605C78.5567 80.2605 75.8565 79.2674 74.2426 77.281C72.6287 75.2947 71.8218 72.4393 71.8218 68.7149C71.8218 67.4114 72.008 65.425 72.3804 62.7559C72.7529 60.0247 73.2184 57.0141 73.7771 53.7243C74.3978 50.3723 75.0496 47.0204 75.7324 43.6684C76.4152 40.3165 77.067 37.3369 77.6877 34.7299L72.846 27.2811C76.0738 25.8534 79.0533 24.643 81.7845 23.6498C84.5778 22.5946 87.0607 22.067 89.2333 22.067C90.8472 22.067 92.0266 22.6256 92.7715 23.7429C93.5163 24.8602 93.8888 26.2879 93.8888 28.026C93.8888 30.0123 93.5474 32.247 92.8646 34.7299C92.1818 37.1507 91.499 39.4474 90.8162 41.62L91.7473 42.0855C93.9198 35.692 96.3717 30.7572 99.1029 27.2811C101.896 23.805 105 22.067 108.414 22.067C110.649 22.067 112.449 22.5635 113.814 23.5567C115.18 24.4878 116.173 25.6672 116.794 27.0949C117.477 28.4605 117.818 29.7951 117.818 31.0986C117.818 33.147 117.29 35.1334 116.235 37.0576C115.242 38.9198 113.628 40.4716 111.393 41.7131C109.159 42.8925 106.21 43.4822 102.548 43.4822C101.12 43.4822 99.7237 43.7926 98.358 44.4133C96.9924 45.034 95.751 46.2134 94.6337 47.9515C93.5163 49.6274 92.6163 52.0172 91.9335 55.1209C91.3127 58.2246 91.0024 62.2593 91.0024 67.2252C91.0024 71.0737 91.6541 73.898 92.9577 75.6981C89.1091 78.7397 85.571 80.2605 82.3432 80.2605Z" fill="#FFFAB5" style="fill:#FFFAB5;fill:color(display-p3 1.0000 0.9805 0.7079);fill-opacity:1;"/>
<path d="M20.7635 80.2606C16.7908 80.2606 13.2216 79.6088 10.0558 78.3053C6.95219 77.0017 4.5003 75.0775 2.70018 72.5325C0.900061 69.9254 0 66.6666 0 62.7559C0 60.3972 0.279329 57.3245 0.837988 53.5381C1.45872 49.7516 2.2036 45.5927 3.07262 41.0614C3.94164 36.468 4.77963 31.8125 5.58658 27.0949L0.651768 17.1322C4.12786 15.1458 7.44878 13.5319 10.6145 12.2905C13.8423 11.049 17.2253 10.4283 20.7635 10.4283C22.2532 10.4283 23.4947 10.6766 24.4879 11.1732C25.481 11.6697 26.288 12.3525 26.9087 13.2216C29.5779 12.2905 32.0918 11.6077 34.4506 11.1732C36.8094 10.7387 39.044 10.5214 41.1545 10.5214C46.8031 10.5214 51.5207 11.7939 55.3072 14.3389C59.0936 16.8839 61.918 20.2358 63.7802 24.3947C65.7044 28.5536 66.6665 33.085 66.6665 37.9888C66.6665 41.8994 66.0458 45.841 64.8044 49.8137C63.625 53.7864 61.7938 57.6039 59.3109 61.2662C56.89 64.9285 53.8485 68.1873 50.1861 71.0427C46.5238 73.8981 42.2408 76.1637 37.337 77.8397C32.4332 79.4536 26.9087 80.2606 20.7635 80.2606ZM24.1154 66.6665C28.833 66.6665 32.7746 65.4872 35.9403 63.1284C39.1681 60.7696 41.589 57.6659 43.2029 53.8174C44.8168 49.9689 45.6238 45.81 45.6238 41.3407C45.6238 35.7541 44.3513 31.2228 41.8063 27.7467C39.2613 24.2085 35.4748 22.4394 30.4469 22.4394C29.8882 22.4394 29.2985 22.4705 28.6778 22.5325C28.0571 22.5946 27.4053 22.6877 26.7225 22.8119C26.35 25.2948 25.8535 28.3985 25.2327 32.1228C24.6741 35.8472 24.0223 39.8199 23.2774 44.0409C22.5946 48.1998 21.9118 52.2656 21.229 56.2383C20.6083 60.1489 20.1117 63.5008 19.7393 66.2941C20.4841 66.4183 21.229 66.5114 21.9739 66.5734C22.7188 66.6355 23.4326 66.6665 24.1154 66.6665Z" fill="#FFFAB5" style="fill:#FFFAB5;fill:color(display-p3 1.0000 0.9805 0.7079);fill-opacity:1;"/>
</svg>
