<svg width="598" height="70" viewBox="0 0 598 70" fill="none" xmlns="http://www.w3.org/2000/svg">
<path d="M547.173 69.8322C543.262 69.8322 540.469 68.8391 538.793 66.8527C537.117 64.8664 536.279 62.011 536.279 58.2866C536.279 56.9831 536.465 54.9968 536.838 52.3276C537.21 49.5964 537.676 46.5858 538.234 43.296C538.855 39.944 539.507 36.5921 540.19 33.2401C540.873 29.8882 541.524 26.9087 542.145 24.3016L537.303 16.8528C539.848 15.4251 542.58 14.2147 545.497 13.2215C548.477 12.1663 551.487 11.6387 554.529 11.6387C557.136 11.6387 559.06 12.2904 560.301 13.594C561.543 14.8354 562.164 16.5425 562.164 18.715C562.164 20.3289 561.946 22.0049 561.512 23.7429C561.077 25.481 560.581 26.9707 560.022 28.2122L560.953 28.6777C564.616 22.4084 568.619 18.0012 572.964 15.4562C577.31 12.9112 581.748 11.6387 586.279 11.6387C590.066 11.6387 592.89 12.5698 594.752 14.432C596.614 16.2321 597.545 19.0564 597.545 22.9049C597.545 26.2569 597.08 29.8261 596.149 33.6126C595.28 37.337 594.38 41.1855 593.449 45.1582C592.517 49.0688 592.052 52.9483 592.052 56.7969C592.052 60.6454 592.704 63.4697 594.007 65.2699C590.717 68.3114 587.303 69.8322 583.765 69.8322C579.855 69.8322 577.061 68.8391 575.385 66.8527C573.709 64.8664 572.871 62.011 572.871 58.2866C572.871 56.2382 573.151 53.9726 573.709 51.4896C574.268 48.9446 574.92 46.3686 575.665 43.7615C576.409 41.1545 577.061 38.7026 577.62 36.4059C578.179 34.1091 578.458 32.1228 578.458 30.4468C578.458 29.1433 578.21 28.1191 577.713 27.3742C577.279 26.6293 576.472 26.2569 575.292 26.2569C573.616 26.2569 571.661 27.0018 569.426 28.4915C567.192 29.9813 564.988 32.0918 562.815 34.823C560.705 37.4921 558.936 40.6889 557.508 44.4133C556.143 48.1377 555.46 52.2655 555.46 56.7969C555.46 60.6454 556.112 63.4697 557.415 65.2699C554.125 68.3114 550.711 69.8322 547.173 69.8322Z" fill="#FFFAB5" style="fill:#FFFAB5;fill:color(display-p3 1.0000 0.9805 0.7079);fill-opacity:1;"/>
<path d="M495.139 69.8322C489.677 69.8322 484.959 68.808 480.987 66.7596C477.076 64.6491 474.065 61.7627 471.955 58.1004C469.844 54.4381 468.789 50.1861 468.789 45.3444C468.789 38.6405 470.248 32.7746 473.165 27.7467C476.145 22.6567 480.211 18.715 485.363 15.9217C490.515 13.0664 496.381 11.6387 502.96 11.6387C504.016 11.6387 505.071 11.7007 506.126 11.8249C507.243 11.887 508.423 12.0732 509.664 12.3836C509.975 13.2526 510.223 14.3078 510.409 15.5493C510.595 16.7287 510.72 18.0012 510.782 19.3668C511.34 19.1806 511.93 19.0254 512.551 18.9012C513.234 18.7771 513.947 18.715 514.692 18.715C516.865 18.715 518.913 19.3047 520.837 20.4841C522.762 21.6014 524.345 23.3705 525.586 25.7913C526.828 28.2122 527.448 31.2848 527.448 35.0092C527.448 40.5337 526.517 45.4685 524.655 49.8137C522.855 54.0967 520.403 57.728 517.299 60.7075C514.196 63.687 510.72 65.9527 506.871 67.5045C503.085 69.0563 499.174 69.8322 495.139 69.8322ZM498.026 58.3797C499.453 58.3797 500.943 58.0383 502.495 57.3555C504.047 56.6727 505.568 55.4313 507.057 53.6312C508.547 51.831 509.788 49.286 510.782 45.9962C508.113 44.3202 506.188 42.2718 505.009 39.8509C503.829 37.368 503.24 34.6368 503.24 31.6573C503.24 30.7882 503.395 29.6709 503.705 28.3053C504.016 26.9397 504.543 25.5431 505.288 24.1154C506.095 22.6877 507.181 21.5083 508.547 20.5772C504.264 21.4462 500.757 22.7498 498.026 24.4878C495.294 26.2259 493.153 28.2432 491.601 30.5399C490.111 32.7746 489.056 35.1023 488.435 37.5232C487.877 39.882 487.597 42.1476 487.597 44.3202C487.597 46.8031 488.001 49.1309 488.808 51.3034C489.615 53.4139 490.794 55.1209 492.346 56.4244C493.898 57.728 495.791 58.3797 498.026 58.3797Z" fill="#FFFAB5" style="fill:#FFFAB5;fill:color(display-p3 1.0000 0.9805 0.7079);fill-opacity:1;"/>
<path d="M428.58 69.8322C423.118 69.8322 418.4 68.808 414.428 66.7596C410.517 64.6491 407.507 61.7627 405.396 58.1004C403.286 54.4381 402.23 50.1861 402.23 45.3444C402.23 38.6405 403.689 32.7746 406.607 27.7467C409.586 22.6567 413.652 18.715 418.804 15.9217C423.956 13.0664 429.822 11.6387 436.402 11.6387C437.457 11.6387 438.512 11.7007 439.567 11.8249C440.685 11.887 441.864 12.0732 443.105 12.3836C443.416 13.2526 443.664 14.3078 443.85 15.5493C444.037 16.7287 444.161 18.0012 444.223 19.3668C444.781 19.1806 445.371 19.0254 445.992 18.9012C446.675 18.7771 447.389 18.715 448.133 18.715C450.306 18.715 452.354 19.3047 454.279 20.4841C456.203 21.6014 457.786 23.3705 459.027 25.7913C460.269 28.2122 460.889 31.2848 460.889 35.0092C460.889 40.5337 459.958 45.4685 458.096 49.8137C456.296 54.0967 453.844 57.728 450.741 60.7075C447.637 63.687 444.161 65.9527 440.312 67.5045C436.526 69.0563 432.615 69.8322 428.58 69.8322ZM431.467 58.3797C432.894 58.3797 434.384 58.0383 435.936 57.3555C437.488 56.6727 439.009 55.4313 440.498 53.6312C441.988 51.831 443.23 49.286 444.223 45.9962C441.554 44.3202 439.629 42.2718 438.45 39.8509C437.271 37.368 436.681 34.6368 436.681 31.6573C436.681 30.7882 436.836 29.6709 437.146 28.3053C437.457 26.9397 437.984 25.5431 438.729 24.1154C439.536 22.6877 440.623 21.5083 441.988 20.5772C437.705 21.4462 434.198 22.7498 431.467 24.4878C428.736 26.2259 426.594 28.2432 425.042 30.5399C423.552 32.7746 422.497 35.1023 421.876 37.5232C421.318 39.882 421.039 42.1476 421.039 44.3202C421.039 46.8031 421.442 49.1309 422.249 51.3034C423.056 53.4139 424.235 55.1209 425.787 56.4244C427.339 57.728 429.232 58.3797 431.467 58.3797Z" fill="#FFFAB5" style="fill:#FFFAB5;fill:color(display-p3 1.0000 0.9805 0.7079);fill-opacity:1;"/>
<path d="M373.817 69.9253C369.658 69.9253 366.71 68.7459 364.972 66.3872C363.296 63.9663 362.458 60.335 362.458 55.4933C362.458 52.5138 362.924 48.0756 363.855 42.1786C364.786 36.2817 366.12 28.5536 367.858 18.9943C366.431 19.1805 364.6 19.4599 362.365 19.8323C360.192 20.2047 357.989 20.6082 355.754 21.0427C353.519 21.4152 351.657 21.7876 350.167 22.16C349.795 20.9807 349.578 19.8323 349.516 18.715C349.454 17.5977 349.423 16.7286 349.423 16.1079C349.423 12.5697 350.043 9.68334 351.285 7.44871C352.588 5.21407 354.295 3.56914 356.406 2.5139C358.516 1.45865 360.813 0.93103 363.296 0.93103C366.462 0.93103 369.596 1.24139 372.7 1.86213C375.804 2.42078 378.907 3.01048 382.011 3.63121C385.177 4.25194 388.405 4.62438 391.694 4.74853C393.991 4.31401 396.536 3.75536 399.329 3.07255C402.185 2.38975 404.668 1.73798 406.778 1.11725C407.151 2.29664 407.368 3.44499 407.43 4.56231C407.492 5.67962 407.523 6.54865 407.523 7.16938C407.523 10.7076 406.809 13.594 405.382 15.8286C404.016 18.0632 402.154 19.7082 399.795 20.7634C397.498 21.8186 394.953 22.3463 392.16 22.3463C391.353 22.3463 390.577 22.3463 389.832 22.3463C389.087 22.2842 388.374 22.2221 387.691 22.16C387.132 24.9533 386.542 27.8708 385.922 30.9124C385.363 33.9539 384.835 36.9024 384.339 39.7578C383.842 42.5511 383.408 45.065 383.035 47.2997C382.725 49.4722 382.57 51.1172 382.57 52.2345C382.57 55.4002 382.787 58.0694 383.221 60.2419C383.718 62.4145 384.432 64.2456 385.363 65.7354C381.639 68.5287 377.79 69.9253 373.817 69.9253Z" fill="#FFFAB5" style="fill:#FFFAB5;fill:color(display-p3 1.0000 0.9805 0.7079);fill-opacity:1;"/>
<path d="M258.933 69.8322C255.022 69.8322 252.229 68.8391 250.553 66.8527C248.877 64.8664 248.039 62.011 248.039 58.2866C248.039 56.9831 248.225 54.9968 248.598 52.3276C248.97 49.5964 249.436 46.5858 249.994 43.296C250.615 39.944 251.267 36.5921 251.95 33.2401C252.633 29.8882 253.284 26.9087 253.905 24.3016L249.063 16.8528C251.608 15.4251 254.34 14.2147 257.257 13.2215C260.237 12.1663 263.247 11.6387 266.289 11.6387C268.896 11.6387 270.82 12.2904 272.061 13.594C273.303 14.8354 273.924 16.5425 273.924 18.715C273.924 20.3289 273.706 22.0049 273.272 23.7429C272.837 25.481 272.341 26.9707 271.782 28.2122L272.713 28.6777C276.376 22.4084 280.224 18.0012 284.259 15.4562C288.294 12.9112 292.577 11.6387 297.108 11.6387C300.398 11.6387 303.098 12.4767 305.209 14.1526C307.319 15.7665 308.374 18.4046 308.374 22.067C308.374 23.9292 308.064 25.9776 307.443 28.2122L308.374 28.6777C312.037 22.4084 315.885 18.0012 319.92 15.4562C323.955 12.9112 328.238 11.6387 332.769 11.6387C336.555 11.6387 339.38 12.5698 341.242 14.432C343.104 16.2321 344.035 19.0564 344.035 22.9049C344.035 26.2569 343.57 29.8261 342.639 33.6126C341.77 37.337 340.87 41.1855 339.938 45.1582C339.007 49.0688 338.542 52.9483 338.542 56.7969C338.542 60.6454 339.194 63.4697 340.497 65.2699C337.207 68.3114 333.793 69.8322 330.255 69.8322C326.344 69.8322 323.551 68.8391 321.875 66.8527C320.199 64.8664 319.361 62.011 319.361 58.2866C319.361 56.2382 319.641 53.9726 320.199 51.4896C320.758 48.9446 321.41 46.3686 322.155 43.7615C322.899 41.1545 323.551 38.7026 324.11 36.4059C324.668 34.1091 324.948 32.1228 324.948 30.4468C324.948 29.1433 324.699 28.1191 324.203 27.3742C323.768 26.6293 322.961 26.2569 321.782 26.2569C320.106 26.2569 318.182 27.0018 316.009 28.4915C313.899 29.9813 311.819 32.0918 309.771 34.823C307.785 37.4921 306.14 40.6889 304.836 44.4133C303.533 48.1377 302.881 52.2655 302.881 56.7969C302.881 60.6454 303.533 63.4697 304.836 65.2699C301.546 68.3114 298.132 69.8322 294.594 69.8322C290.683 69.8322 287.89 68.8391 286.214 66.8527C284.538 64.8664 283.7 62.011 283.7 58.2866C283.7 56.2382 283.98 53.9726 284.538 51.4896C285.097 48.9446 285.749 46.3686 286.493 43.7615C287.238 41.1545 287.89 38.7026 288.449 36.4059C289.007 34.1091 289.287 32.1228 289.287 30.4468C289.287 29.1433 289.038 28.1191 288.542 27.3742C288.107 26.6293 287.3 26.2569 286.121 26.2569C284.445 26.2569 282.521 27.0018 280.348 28.4915C278.238 29.9813 276.158 32.0918 274.11 34.823C272.124 37.4921 270.479 40.6889 269.175 44.4133C267.872 48.1377 267.22 52.2655 267.22 56.7969C267.22 60.6454 267.872 63.4697 269.175 65.2699C265.885 68.3114 262.471 69.8322 258.933 69.8322Z" fill="#FFFAB5" style="fill:#FFFAB5;fill:color(display-p3 1.0000 0.9805 0.7079);fill-opacity:1;"/>
<path d="M195.495 69.8322C192.019 69.8322 188.946 68.9322 186.277 67.1321C183.67 65.3319 181.652 62.7869 180.225 59.4971C178.797 56.2072 178.083 52.3587 178.083 47.9515C178.083 42.7994 178.983 38.0198 180.783 33.6126C182.646 29.2054 185.191 25.3568 188.418 22.067C191.708 18.7771 195.557 16.2321 199.964 14.432C204.371 12.5698 209.151 11.6387 214.303 11.6387C215.793 11.6387 217.065 11.7007 218.12 11.8249C219.238 11.887 220.417 12.0732 221.659 12.3836C222.031 14.1216 222.248 15.6424 222.31 16.9459C223.738 16.0148 225.321 15.301 227.059 14.8044C228.797 14.2457 230.411 13.9664 231.901 13.9664C236.432 13.9664 238.698 16.4183 238.698 21.3221C238.698 22.936 238.387 25.1396 237.767 27.9329C237.208 30.6641 236.525 33.7057 235.718 37.0576C234.973 40.3475 234.29 43.7305 233.67 47.2066C233.111 50.6206 232.832 53.8174 232.832 56.7969C232.832 60.8316 233.794 63.656 235.718 65.2699C232.242 68.3114 228.549 69.8322 224.638 69.8322C221.038 69.8322 218.369 68.7149 216.631 66.4803C214.955 64.2457 214.117 60.7696 214.117 56.052L213.186 55.5865C211.51 60.0557 209.089 63.5629 205.923 66.1079C202.819 68.5908 199.343 69.8322 195.495 69.8322ZM202.85 52.8863C205.271 52.8863 207.63 52.0172 209.927 50.2792C212.223 48.5412 214.148 46.1513 215.7 43.1098C215.948 40.6889 216.196 38.4232 216.444 36.3127C216.755 34.1402 217.127 31.8435 217.562 29.4226C218.058 27.0018 218.648 24.1464 219.331 20.8565C216.165 20.8565 213.155 21.4773 210.299 22.7187C207.506 23.8981 204.992 25.5431 202.757 27.6535C200.523 29.764 198.754 32.1849 197.45 34.9161C196.209 37.5852 195.588 40.4096 195.588 43.3891C195.588 46.4307 196.209 48.7894 197.45 50.4654C198.754 52.0793 200.554 52.8863 202.85 52.8863Z" fill="#FFFAB5" style="fill:#FFFAB5;fill:color(display-p3 1.0000 0.9805 0.7079);fill-opacity:1;"/>
<path d="M143.984 69.8322C138.211 69.8322 133.338 68.808 129.366 66.7596C125.393 64.7112 122.383 61.8558 120.334 58.1935C118.348 54.4691 117.355 50.1861 117.355 45.3444C117.355 40.3165 118.255 35.7541 120.055 31.6573C121.917 27.4984 124.493 23.9292 127.783 20.9496C131.073 17.9701 134.89 15.6734 139.235 14.0595C143.643 12.4456 148.391 11.6387 153.481 11.6387C159.502 11.6387 163.941 12.9732 166.796 15.6424C169.651 18.3115 171.079 21.6635 171.079 25.6982C171.079 29.1743 169.931 32.4642 167.634 35.5679C165.399 38.6095 161.768 41.0924 156.74 43.0166C151.712 44.8788 145.008 45.841 136.628 45.903C136.815 49.8757 137.715 53.0104 139.329 55.3071C141.004 57.5418 143.084 58.6591 145.567 58.6591C146.808 58.6591 148.112 58.3797 149.477 57.8211C150.843 57.2004 151.991 56.1451 152.923 54.6554C153.854 53.1035 154.319 50.993 154.319 48.3239C158.54 48.3239 161.861 48.7894 164.282 49.7205C166.703 50.6516 167.913 52.3276 167.913 54.7485C167.913 56.9831 166.951 59.2798 165.027 61.6386C163.103 63.9353 160.34 65.8906 156.74 67.5045C153.202 69.0563 148.95 69.8322 143.984 69.8322ZM137.466 38.4543C141.998 38.0818 145.629 37.2438 148.36 35.9403C151.091 34.6368 153.078 33.147 154.319 31.471C155.561 29.7951 156.181 28.2432 156.181 26.8156C156.181 25.5741 155.809 24.5499 155.064 23.7429C154.319 22.936 153.264 22.5325 151.898 22.5325C149.664 22.5325 147.584 23.3084 145.66 24.8602C143.736 26.4121 142.06 28.4295 140.632 30.9124C139.266 33.3332 138.211 35.8472 137.466 38.4543Z" fill="#FFFAB5" style="fill:#FFFAB5;fill:color(display-p3 1.0000 0.9805 0.7079);fill-opacity:1;"/>
<path d="M82.3432 69.8322C78.5567 69.8322 75.8565 68.8391 74.2426 66.8527C72.6287 64.8664 71.8218 62.011 71.8218 58.2866C71.8218 56.9831 72.008 54.9968 72.3804 52.3276C72.7529 49.5964 73.2184 46.5858 73.7771 43.296C74.3978 39.944 75.0496 36.5921 75.7324 33.2401C76.4152 29.8882 77.067 26.9087 77.6877 24.3016L72.846 16.8528C76.0738 15.4251 79.0533 14.2147 81.7845 13.2215C84.5778 12.1663 87.0607 11.6387 89.2333 11.6387C90.8472 11.6387 92.0266 12.1973 92.7715 13.3146C93.5163 14.432 93.8888 15.8596 93.8888 17.5977C93.8888 19.584 93.5474 21.8187 92.8646 24.3016C92.1818 26.7224 91.499 29.0192 90.8162 31.1917L91.7473 31.6573C93.9198 25.2637 96.3717 20.3289 99.1029 16.8528C101.896 13.3767 105 11.6387 108.414 11.6387C110.649 11.6387 112.449 12.1353 113.814 13.1284C115.18 14.0595 116.173 15.2389 116.794 16.6666C117.477 18.0322 117.818 19.3668 117.818 20.6703C117.818 22.7187 117.29 24.7051 116.235 26.6293C115.242 28.4915 113.628 30.0434 111.393 31.2848C109.159 32.4642 106.21 33.0539 102.548 33.0539C101.12 33.0539 99.7237 33.3643 98.358 33.985C96.9924 34.6057 95.751 35.7851 94.6337 37.5232C93.5163 39.1991 92.6163 41.589 91.9335 44.6926C91.3127 47.7963 91.0024 51.831 91.0024 56.7969C91.0024 60.6454 91.6541 63.4697 92.9577 65.2699C89.1091 68.3114 85.571 69.8322 82.3432 69.8322Z" fill="#FFFAB5" style="fill:#FFFAB5;fill:color(display-p3 1.0000 0.9805 0.7079);fill-opacity:1;"/>
<path d="M20.7635 69.8323C16.7908 69.8323 13.2216 69.1805 10.0558 67.877C6.95219 66.5734 4.5003 64.6492 2.70018 62.1042C0.900061 59.4971 0 56.2383 0 52.3277C0 49.9689 0.279329 46.8963 0.837988 43.1098C1.45872 39.3233 2.2036 35.1644 3.07262 30.6331C3.94164 26.0397 4.77963 21.3842 5.58658 16.6666L0.651768 6.7039C4.12786 4.71756 7.44878 3.10365 10.6145 1.86219C13.8423 0.620731 17.2253 0 20.7635 0C22.2532 0 23.4947 0.248295 24.4879 0.744881C25.481 1.24146 26.288 1.92427 26.9087 2.79329C29.5779 1.86219 32.0918 1.17939 34.4506 0.744881C36.8094 0.310367 39.044 0.0931091 41.1545 0.0931091C46.8031 0.0931091 51.5207 1.36561 55.3072 3.91061C59.0936 6.45561 61.918 9.80756 63.7802 13.9665C65.7044 18.1254 66.6665 22.6567 66.6665 27.5605C66.6665 31.4711 66.0458 35.4127 64.8044 39.3854C63.625 43.3581 61.7938 47.1756 59.3109 50.8379C56.89 54.5002 53.8485 57.7591 50.1861 60.6144C46.5238 63.4698 42.2408 65.7355 37.337 67.4114C32.4332 69.0253 26.9087 69.8323 20.7635 69.8323ZM24.1154 56.2383C28.833 56.2383 32.7746 55.0589 35.9403 52.7001C39.1681 50.3413 41.589 47.2377 43.2029 43.3891C44.8168 39.5406 45.6238 35.3817 45.6238 30.9124C45.6238 25.3258 44.3513 20.7945 41.8063 17.3184C39.2613 13.7802 35.4748 12.0112 30.4469 12.0112C29.8882 12.0112 29.2985 12.0422 28.6778 12.1043C28.0571 12.1663 27.4053 12.2594 26.7225 12.3836C26.35 14.8665 25.8535 17.9702 25.2327 21.6946C24.6741 25.419 24.0223 29.3916 23.2774 33.6126C22.5946 37.7715 21.9118 41.8373 21.229 45.81C20.6083 49.7206 20.1117 53.0725 19.7393 55.8658C20.4841 55.99 21.229 56.0831 21.9739 56.1452C22.7188 56.2072 23.4326 56.2383 24.1154 56.2383Z" fill="#FFFAB5" style="fill:#FFFAB5;fill:color(display-p3 1.0000 0.9805 0.7079);fill-opacity:1;"/>
</svg>
