<svg width="231" height="77" viewBox="0 0 231 77" fill="none" xmlns="http://www.w3.org/2000/svg">
<path d="M189.655 67.3256C188.037 67.3256 186.881 66.9145 186.187 66.0925C185.494 65.2704 185.147 64.0886 185.147 62.5472C185.147 62.0077 185.224 61.1857 185.378 60.081C185.532 58.9506 185.725 57.7047 185.956 56.3431C186.213 54.9558 186.483 53.5686 186.765 52.1813C187.048 50.794 187.318 49.5609 187.575 48.4819L185.571 45.3991C186.624 44.8083 187.754 44.3073 188.962 43.8963C190.195 43.4595 191.441 43.2412 192.7 43.2412C193.779 43.2412 194.575 43.5109 195.089 44.0504C195.603 44.5642 195.86 45.2707 195.86 46.1698C195.86 46.8378 195.77 47.5314 195.59 48.2507C195.41 48.97 195.204 49.5866 194.973 50.1004L195.359 50.2931C196.874 47.6984 198.531 45.8744 200.33 44.8211C202.128 43.7678 203.965 43.2412 205.84 43.2412C207.407 43.2412 208.576 43.6265 209.347 44.3972C210.118 45.1422 210.503 46.3111 210.503 47.9039C210.503 49.2912 210.31 50.7683 209.925 52.3354C209.565 53.8768 209.193 55.4696 208.807 57.1138C208.422 58.7323 208.229 60.3379 208.229 61.9307C208.229 63.5235 208.499 64.6923 209.039 65.4374C207.677 66.6962 206.264 67.3256 204.8 67.3256C203.181 67.3256 202.025 66.9145 201.332 66.0925C200.638 65.2704 200.291 64.0886 200.291 62.5472C200.291 61.6995 200.407 60.7618 200.638 59.7342C200.869 58.6809 201.139 57.6147 201.447 56.5358C201.755 55.4568 202.025 54.442 202.256 53.4915C202.488 52.541 202.603 51.7189 202.603 51.0252C202.603 50.4858 202.5 50.0619 202.295 49.7536C202.115 49.4453 201.781 49.2912 201.293 49.2912C200.599 49.2912 199.79 49.5994 198.865 50.216C197.94 50.8326 197.028 51.706 196.129 52.8364C195.256 53.9411 194.524 55.2641 193.933 56.8055C193.368 58.3469 193.085 60.0553 193.085 61.9307C193.085 63.5235 193.355 64.6923 193.894 65.4374C192.533 66.6962 191.12 67.3256 189.655 67.3256Z" fill="#FFFAB5" style="fill:#FFFAB5;fill:color(display-p3 1.0000 0.9805 0.7079);fill-opacity:1;"/>
<path d="M168.12 67.3256C165.86 67.3256 163.907 66.9017 162.263 66.0539C160.645 65.1805 159.399 63.9859 158.525 62.4702C157.652 60.9544 157.215 59.1947 157.215 57.1909C157.215 54.4163 157.819 51.9886 159.026 49.9077C160.259 47.8011 161.942 46.1698 164.074 45.0138C166.206 43.832 168.634 43.2412 171.357 43.2412C171.794 43.2412 172.231 43.2669 172.667 43.3182C173.13 43.3439 173.618 43.421 174.132 43.5494C174.26 43.9091 174.363 44.3458 174.44 44.8596C174.517 45.3477 174.569 45.8744 174.594 46.4396C174.825 46.3625 175.069 46.2983 175.326 46.2469C175.609 46.1955 175.904 46.1698 176.213 46.1698C177.112 46.1698 177.96 46.4139 178.756 46.902C179.552 47.3644 180.208 48.0966 180.721 49.0985C181.235 50.1004 181.492 51.3721 181.492 52.9135C181.492 55.1999 181.107 57.2422 180.336 59.0405C179.591 60.8132 178.576 62.316 177.292 63.5491C176.007 64.7823 174.569 65.72 172.976 66.3622C171.409 67.0045 169.79 67.3256 168.12 67.3256ZM169.315 62.5858C169.906 62.5858 170.522 62.4445 171.165 62.1619C171.807 61.8793 172.436 61.3655 173.053 60.6205C173.669 59.8755 174.183 58.8222 174.594 57.4606C173.49 56.767 172.693 55.9192 172.205 54.9173C171.717 53.8897 171.473 52.7593 171.473 51.5262C171.473 51.1665 171.537 50.7041 171.666 50.1389C171.794 49.5738 172.012 48.9957 172.321 48.4049C172.655 47.814 173.104 47.3259 173.669 46.9405C171.897 47.3002 170.445 47.8397 169.315 48.559C168.185 49.2783 167.298 50.1133 166.656 51.0638C166.039 51.9886 165.603 52.952 165.346 53.9539C165.115 54.9301 164.999 55.8678 164.999 56.767C164.999 57.7946 165.166 58.7579 165.5 59.6571C165.834 60.5306 166.322 61.237 166.964 61.7765C167.607 62.316 168.39 62.5858 169.315 62.5858Z" fill="#FFFAB5" style="fill:#FFFAB5;fill:color(display-p3 1.0000 0.9805 0.7079);fill-opacity:1;"/>
<path d="M140.574 67.3256C138.313 67.3256 136.361 66.9017 134.717 66.0539C133.098 65.1805 131.852 63.9859 130.979 62.4702C130.105 60.9544 129.668 59.1947 129.668 57.1909C129.668 54.4163 130.272 51.9886 131.48 49.9077C132.713 47.8011 134.395 46.1698 136.528 45.0138C138.66 43.832 141.088 43.2412 143.811 43.2412C144.248 43.2412 144.684 43.2669 145.121 43.3182C145.583 43.3439 146.072 43.421 146.585 43.5494C146.714 43.9091 146.817 44.3458 146.894 44.8596C146.971 45.3477 147.022 45.8744 147.048 46.4396C147.279 46.3625 147.523 46.2983 147.78 46.2469C148.062 46.1955 148.358 46.1698 148.666 46.1698C149.565 46.1698 150.413 46.4139 151.21 46.902C152.006 47.3644 152.661 48.0966 153.175 49.0985C153.689 50.1004 153.946 51.3721 153.946 52.9135C153.946 55.1999 153.56 57.2422 152.789 59.0405C152.044 60.8132 151.03 62.316 149.745 63.5491C148.461 64.7823 147.022 65.72 145.429 66.3622C143.862 67.0045 142.244 67.3256 140.574 67.3256ZM141.768 62.5858C142.359 62.5858 142.976 62.4445 143.618 62.1619C144.26 61.8793 144.89 61.3655 145.506 60.6205C146.123 59.8755 146.637 58.8222 147.048 57.4606C145.943 56.767 145.147 55.9192 144.659 54.9173C144.17 53.8897 143.926 52.7593 143.926 51.5262C143.926 51.1665 143.991 50.7041 144.119 50.1389C144.248 49.5738 144.466 48.9957 144.774 48.4049C145.108 47.814 145.558 47.3259 146.123 46.9405C144.35 47.3002 142.899 47.8397 141.768 48.559C140.638 49.2783 139.752 50.1133 139.11 51.0638C138.493 51.9886 138.056 52.952 137.799 53.9539C137.568 54.9301 137.452 55.8678 137.452 56.767C137.452 57.7946 137.619 58.7579 137.953 59.6571C138.287 60.5306 138.776 61.237 139.418 61.7765C140.06 62.316 140.844 62.5858 141.768 62.5858Z" fill="#FFFAB5" style="fill:#FFFAB5;fill:color(display-p3 1.0000 0.9805 0.7079);fill-opacity:1;"/>
<path d="M114.987 72.5518C112.905 72.5518 111.429 71.9614 110.559 70.7807C109.72 69.5689 109.3 67.7511 109.3 65.3275C109.3 63.836 109.533 61.6144 110 58.6625C110.466 55.7106 111.134 51.8421 112.004 47.057C111.289 47.1502 110.372 47.29 109.254 47.4764C108.166 47.6629 107.063 47.8649 105.945 48.0824C104.826 48.2688 103.894 48.4552 103.148 48.6417C102.962 48.0513 102.853 47.4764 102.822 46.9171C102.791 46.3578 102.775 45.9228 102.775 45.6121C102.775 43.841 103.086 42.3961 103.707 41.2775C104.36 40.1589 105.214 39.3355 106.271 38.8073C107.327 38.279 108.477 38.0149 109.72 38.0149C111.305 38.0149 112.874 38.1703 114.427 38.481C115.981 38.7607 117.535 39.0558 119.088 39.3666C120.673 39.6773 122.289 39.8637 123.935 39.9259C125.085 39.7084 126.359 39.4287 127.757 39.0869C129.187 38.7451 130.43 38.4189 131.486 38.1081C131.672 38.6985 131.781 39.2734 131.812 39.8327C131.843 40.392 131.859 40.827 131.859 41.1377C131.859 42.9088 131.502 44.3537 130.787 45.4723C130.103 46.5909 129.171 47.4143 127.99 47.9425C126.841 48.4708 125.567 48.7349 124.169 48.7349C123.765 48.7349 123.376 48.7349 123.003 48.7349C122.63 48.7038 122.273 48.6727 121.931 48.6417C121.652 50.0399 121.356 51.5003 121.046 53.0229C120.766 54.5454 120.502 56.0213 120.253 57.4507C120.005 58.8489 119.787 60.1073 119.601 61.226C119.446 62.3135 119.368 63.1369 119.368 63.6962C119.368 65.2809 119.477 66.617 119.694 67.7045C119.943 68.7921 120.3 69.7087 120.766 70.4544C118.902 71.8527 116.975 72.5518 114.987 72.5518Z" fill="#FFFAB5" style="fill:#FFFAB5;fill:color(display-p3 1.0000 0.9805 0.7079);fill-opacity:1;"/>
<path d="M195.518 35.2339C193.899 35.2339 192.743 34.8229 192.05 34.0008C191.356 33.1787 191.009 31.997 191.009 30.4556C191.009 29.9161 191.086 29.094 191.24 27.9894C191.395 26.859 191.587 25.613 191.819 24.2515C192.075 22.8642 192.345 21.4769 192.628 20.0897C192.91 18.7024 193.18 17.4693 193.437 16.3903L191.433 13.3075C192.486 12.7166 193.617 12.2157 194.824 11.8046C196.057 11.3679 197.303 11.1495 198.562 11.1495C199.641 11.1495 200.438 11.4193 200.951 11.9588C201.465 12.4726 201.722 13.179 201.722 14.0782C201.722 14.7461 201.632 15.4398 201.452 16.1591C201.272 16.8784 201.067 17.495 200.836 18.0088L201.221 18.2015C202.737 15.6068 204.33 13.7828 205.999 12.7295C207.669 11.6762 209.442 11.1495 211.317 11.1495C212.679 11.1495 213.796 11.4964 214.67 12.19C215.543 12.8579 215.98 13.9498 215.98 15.4655C215.98 16.2362 215.852 17.0839 215.595 18.0088L215.98 18.2015C217.496 15.6068 219.088 13.7828 220.758 12.7295C222.428 11.6762 224.201 11.1495 226.076 11.1495C227.643 11.1495 228.812 11.5349 229.583 12.3056C230.354 13.0506 230.739 14.2195 230.739 15.8123C230.739 17.1995 230.546 18.6767 230.161 20.2438C229.801 21.7852 229.429 23.378 229.043 25.0222C228.658 26.6406 228.465 28.2463 228.465 29.839C228.465 31.4318 228.735 32.6007 229.275 33.3457C227.913 34.6045 226.5 35.2339 225.036 35.2339C223.417 35.2339 222.261 34.8229 221.568 34.0008C220.874 33.1787 220.527 31.997 220.527 30.4556C220.527 29.6078 220.643 28.6701 220.874 27.6425C221.105 26.5893 221.375 25.5231 221.683 24.4441C221.991 23.3651 222.261 22.3504 222.492 21.3999C222.724 20.4493 222.839 19.6272 222.839 18.9336C222.839 18.3941 222.736 17.9702 222.531 17.662C222.351 17.3537 222.017 17.1995 221.529 17.1995C220.835 17.1995 220.039 17.5078 219.14 18.1244C218.266 18.7409 217.406 19.6144 216.558 20.7448C215.736 21.8494 215.055 23.1725 214.516 24.7139C213.976 26.2553 213.706 27.9637 213.706 29.839C213.706 31.4318 213.976 32.6007 214.516 33.3457C213.154 34.6045 211.741 35.2339 210.277 35.2339C208.658 35.2339 207.502 34.8229 206.809 34.0008C206.115 33.1787 205.768 31.997 205.768 30.4556C205.768 29.6078 205.884 28.6701 206.115 27.6425C206.346 26.5893 206.616 25.5231 206.924 24.4441C207.233 23.3651 207.502 22.3504 207.733 21.3999C207.965 20.4493 208.08 19.6272 208.08 18.9336C208.08 18.3941 207.978 17.9702 207.772 17.662C207.592 17.3537 207.258 17.1995 206.77 17.1995C206.076 17.1995 205.28 17.5078 204.381 18.1244C203.507 18.7409 202.647 19.6144 201.799 20.7448C200.977 21.8494 200.296 23.1725 199.757 24.7139C199.217 26.2553 198.947 27.9637 198.947 29.839C198.947 31.4318 199.217 32.6007 199.757 33.3457C198.395 34.6045 196.982 35.2339 195.518 35.2339Z" fill="#FFFAB5" style="fill:#FFFAB5;fill:color(display-p3 1.0000 0.9805 0.7079);fill-opacity:1;"/>
<path d="M169.263 35.2339C167.824 35.2339 166.553 34.8614 165.448 34.1164C164.369 33.3714 163.534 32.3181 162.943 30.9566C162.352 29.595 162.057 28.0022 162.057 26.1782C162.057 24.0459 162.429 22.0678 163.174 20.2438C163.945 18.4198 164.998 16.827 166.334 15.4655C167.696 14.1039 169.289 13.0506 171.113 12.3056C172.937 11.5349 174.915 11.1495 177.047 11.1495C177.664 11.1495 178.19 11.1752 178.627 11.2266C179.089 11.2523 179.577 11.3294 180.091 11.4578C180.245 12.1771 180.335 12.8065 180.361 13.346C180.952 12.9607 181.607 12.6652 182.326 12.4597C183.046 12.2285 183.714 12.1129 184.33 12.1129C186.205 12.1129 187.143 13.1277 187.143 15.1572C187.143 15.8251 187.015 16.7371 186.758 17.8932C186.527 19.0235 186.244 20.2823 185.91 21.6696C185.602 23.0312 185.319 24.4313 185.062 25.8699C184.831 27.2829 184.715 28.6059 184.715 29.839C184.715 31.5089 185.114 32.6778 185.91 33.3457C184.471 34.6045 182.943 35.2339 181.324 35.2339C179.834 35.2339 178.73 34.7715 178.01 33.8467C177.317 32.9218 176.97 31.4832 176.97 29.5308L176.585 29.3381C175.891 31.1878 174.889 32.6393 173.579 33.6925C172.294 34.7201 170.856 35.2339 169.263 35.2339ZM172.307 28.2206C173.309 28.2206 174.285 27.8609 175.236 27.1416C176.186 26.4223 176.983 25.4332 177.625 24.1744C177.728 23.1725 177.831 22.2348 177.933 21.3613C178.062 20.4622 178.216 19.5116 178.396 18.5097C178.601 17.5078 178.845 16.3261 179.128 14.9645C177.818 14.9645 176.572 15.2214 175.39 15.7352C174.234 16.2233 173.193 16.9041 172.269 17.7776C171.344 18.651 170.612 19.6529 170.072 20.7833C169.558 21.888 169.301 23.0569 169.301 24.29C169.301 25.5488 169.558 26.525 170.072 27.2187C170.612 27.8866 171.357 28.2206 172.307 28.2206Z" fill="#FFFAB5" style="fill:#FFFAB5;fill:color(display-p3 1.0000 0.9805 0.7079);fill-opacity:1;"/>
<path d="M147.944 35.2339C145.555 35.2339 143.538 34.8101 141.894 33.9623C140.25 33.1145 139.004 31.9328 138.156 30.4171C137.334 28.8757 136.923 27.1031 136.923 25.0992C136.923 23.0183 137.296 21.1301 138.041 19.4346C138.811 17.7133 139.878 16.2362 141.239 15.003C142.601 13.7699 144.181 12.8194 145.979 12.1514C147.803 11.4835 149.768 11.1495 151.875 11.1495C154.367 11.1495 156.204 11.7019 157.385 12.8065C158.567 13.9112 159.158 15.2985 159.158 16.9683C159.158 18.407 158.683 19.7685 157.732 21.053C156.807 22.3119 155.304 23.3395 153.224 24.1359C151.143 24.9066 148.368 25.3047 144.9 25.3304C144.977 26.9746 145.35 28.2719 146.017 29.2225C146.711 30.1473 147.572 30.6097 148.599 30.6097C149.113 30.6097 149.653 30.4941 150.218 30.2629C150.783 30.006 151.258 29.5693 151.644 28.9527C152.029 28.3105 152.222 27.437 152.222 26.3323C153.969 26.3323 155.343 26.525 156.345 26.9104C157.347 27.2957 157.848 27.9894 157.848 28.9913C157.848 29.9161 157.45 30.8666 156.653 31.8429C155.857 32.7934 154.714 33.6026 153.224 34.2706C151.759 34.9128 149.999 35.2339 147.944 35.2339ZM145.247 22.2476C147.122 22.0935 148.625 21.7467 149.755 21.2072C150.886 20.6677 151.708 20.0511 152.222 19.3575C152.735 18.6639 152.992 18.0216 152.992 17.4308C152.992 16.9169 152.838 16.4931 152.53 16.1591C152.222 15.8251 151.785 15.6581 151.22 15.6581C150.295 15.6581 149.434 15.9793 148.638 16.6215C147.841 17.2638 147.148 18.0987 146.557 19.1263C145.992 20.1282 145.555 21.1687 145.247 22.2476Z" fill="#FFFAB5" style="fill:#FFFAB5;fill:color(display-p3 1.0000 0.9805 0.7079);fill-opacity:1;"/>
<path d="M122.433 35.2339C120.866 35.2339 119.749 34.8229 119.081 34.0008C118.413 33.1787 118.079 31.997 118.079 30.4556C118.079 29.9161 118.156 29.094 118.31 27.9894C118.464 26.859 118.657 25.613 118.888 24.2515C119.145 22.8642 119.415 21.4769 119.697 20.0897C119.98 18.7024 120.249 17.4693 120.506 16.3903L118.503 13.3075C119.838 12.7166 121.072 12.2157 122.202 11.8046C123.358 11.3679 124.386 11.1495 125.285 11.1495C125.953 11.1495 126.441 11.3807 126.749 11.8432C127.057 12.3056 127.211 12.8965 127.211 13.6158C127.211 14.4379 127.07 15.3627 126.788 16.3903C126.505 17.3922 126.222 18.3427 125.94 19.2419L126.325 19.4346C127.224 16.7885 128.239 14.7461 129.369 13.3075C130.526 11.8689 131.81 11.1495 133.223 11.1495C134.148 11.1495 134.893 11.3551 135.458 11.7661C136.023 12.1514 136.434 12.6396 136.691 13.2304C136.974 13.7956 137.115 14.3479 137.115 14.8874C137.115 15.7352 136.897 16.5573 136.46 17.3537C136.049 18.1244 135.381 18.7666 134.456 19.2804C133.531 19.7685 132.311 20.0126 130.795 20.0126C130.204 20.0126 129.626 20.1411 129.061 20.398C128.496 20.6549 127.982 21.143 127.52 21.8623C127.057 22.5559 126.685 23.545 126.402 24.8295C126.145 26.114 126.017 27.7838 126.017 29.839C126.017 31.4318 126.287 32.6007 126.826 33.3457C125.233 34.6045 123.769 35.2339 122.433 35.2339Z" fill="#FFFAB5" style="fill:#FFFAB5;fill:color(display-p3 1.0000 0.9805 0.7079);fill-opacity:1;"/>
<path d="M92.2017 37.7488C90.2131 37.7488 88.4264 37.4225 86.8417 36.77C85.2881 36.1175 84.0608 35.1542 83.1597 33.8803C82.2586 32.5752 81.808 30.9439 81.808 28.9864C81.808 27.8056 81.9478 26.2675 82.2275 24.3721C82.5382 22.4767 82.9111 20.3949 83.3461 18.1266C83.7811 15.8272 84.2006 13.4968 84.6045 11.1353L82.1343 6.1482C83.8743 5.15388 85.5367 4.346 87.1214 3.72456C88.7371 3.10311 90.4306 2.79239 92.2017 2.79239C92.9474 2.79239 93.5689 2.91668 94.066 3.16526C94.5632 3.41384 94.9671 3.75563 95.2779 4.19064C96.614 3.72456 97.8724 3.38276 99.0532 3.16526C100.234 2.94775 101.353 2.839 102.409 2.839C105.237 2.839 107.598 3.47598 109.493 4.74995C111.389 6.02391 112.803 7.70182 113.735 9.78366C114.698 11.8655 115.18 14.1338 115.18 16.5885C115.18 18.5461 114.869 20.5192 114.248 22.5078C113.657 24.4964 112.741 26.4074 111.498 28.2406C110.286 30.0739 108.763 31.7052 106.93 33.1345C105.097 34.5638 102.953 35.698 100.498 36.5369C98.0433 37.3448 95.2779 37.7488 92.2017 37.7488ZM93.8796 30.9439C96.2411 30.9439 98.2142 30.3535 99.7989 29.1728C101.415 27.992 102.626 26.4384 103.434 24.5119C104.242 22.5855 104.646 20.5036 104.646 18.2664C104.646 15.4699 104.009 13.2016 102.735 11.4616C101.461 9.69045 99.5658 8.80489 97.049 8.80489C96.7693 8.80489 96.4742 8.82042 96.1634 8.85149C95.8527 8.88256 95.5264 8.92917 95.1847 8.99132C94.9982 10.2342 94.7496 11.7878 94.4389 13.6522C94.1593 15.5165 93.833 17.5051 93.4601 19.6181C93.1183 21.6999 92.7765 23.7351 92.4348 25.7238C92.124 27.6813 91.8754 29.3592 91.689 30.7575C92.0619 30.8196 92.4347 30.8662 92.8076 30.8973C93.1805 30.9284 93.5378 30.9439 93.8796 30.9439Z" fill="#FFFAB5" style="fill:#FFFAB5;fill:color(display-p3 1.0000 0.9805 0.7079);fill-opacity:1;"/>
<mask id="path-10-inside-1_34_24" fill="white">
<path d="M37.4866 0.106966C37.5114 0.118331 37.5114 0.243343 37.6017 0.27971C37.7799 0.352445 37.9423 0.306986 38.168 0.454727C38.2131 0.484276 38.8922 1.17071 38.9238 1.21389C39.0975 1.45937 39.5578 2.47311 39.5803 2.73904C39.7879 5.22338 37.8431 6.04846 36.4803 7.58952C35.1176 9.13058 33.3893 11.7922 32.55 13.581C25.9822 27.571 32.0649 43.8658 46.1098 50.1096C50.638 51.9234 55.8317 52.7098 60.9578 51.887C62.6387 51.6166 64.4008 51.0597 66.0907 50.3983C67.5414 49.83 68.8478 48.8936 70.5219 49.6777C70.5828 49.705 71.4559 50.3687 71.5168 50.446C72.6134 51.8416 72.4148 53.0712 71.7267 54.6373C67.9092 63.3063 58.6182 71.1344 49.9972 74.0301C43.9483 76.0621 36.9519 76.6304 30.3209 75.3416C29.2131 75.1257 28.2317 74.7234 27.2615 74.4779C18.8729 72.355 10.6333 66.0157 5.85918 58.4127C0.550346 49.9641 -1.28846 39.9131 0.909082 29.6871C1.15501 28.5438 1.3716 27.621 1.75064 26.3891C5.21391 15.1312 13.9589 6.02573 25.1971 2.13444C28.5385 0.979779 32.638 -0.0566863 36.4713 0.00241037C36.654 0.00468332 37.3828 0.0592341 37.4888 0.106966H37.4866ZM28.4212 7.81681C28.2632 7.65089 27.4758 8.16457 27.2006 8.03956C12.3254 13.606 3.57365 28.9825 6.98503 44.9591C11.168 62.2585 27.7195 72.7459 44.8373 68.8114C50.0559 67.6113 55.182 64.9133 59.0942 61.2698C60.0215 60.4061 60.7638 59.3287 61.7452 58.5195L61.7791 58.1126C61.488 58.0081 61.6076 58.3081 61.4925 58.3331C61.109 58.415 60.5088 58.2672 60.096 58.3263C54.1215 59.1696 48.7405 57.9922 43.5513 55.8602C34.0459 51.953 26.5553 42.6793 24.4232 32.9602C22.7581 25.3663 23.5861 17.9451 26.8125 11.0489C27.1983 10.2216 27.6315 9.41697 28.0309 8.62144C28.1053 8.47142 28.6355 8.03956 28.4234 7.81908L28.4212 7.81681Z"/>
</mask>
<path d="M37.4866 0.106966C37.5114 0.118331 37.5114 0.243343 37.6017 0.27971C37.7799 0.352445 37.9423 0.306986 38.168 0.454727C38.2131 0.484276 38.8922 1.17071 38.9238 1.21389C39.0975 1.45937 39.5578 2.47311 39.5803 2.73904C39.7879 5.22338 37.8431 6.04846 36.4803 7.58952C35.1176 9.13058 33.3893 11.7922 32.55 13.581C25.9822 27.571 32.0649 43.8658 46.1098 50.1096C50.638 51.9234 55.8317 52.7098 60.9578 51.887C62.6387 51.6166 64.4008 51.0597 66.0907 50.3983C67.5414 49.83 68.8478 48.8936 70.5219 49.6777C70.5828 49.705 71.4559 50.3687 71.5168 50.446C72.6134 51.8416 72.4148 53.0712 71.7267 54.6373C67.9092 63.3063 58.6182 71.1344 49.9972 74.0301C43.9483 76.0621 36.9519 76.6304 30.3209 75.3416C29.2131 75.1257 28.2317 74.7234 27.2615 74.4779C18.8729 72.355 10.6333 66.0157 5.85918 58.4127C0.550346 49.9641 -1.28846 39.9131 0.909082 29.6871C1.15501 28.5438 1.3716 27.621 1.75064 26.3891C5.21391 15.1312 13.9589 6.02573 25.1971 2.13444C28.5385 0.979779 32.638 -0.0566863 36.4713 0.00241037C36.654 0.00468332 37.3828 0.0592341 37.4888 0.106966H37.4866ZM28.4212 7.81681C28.2632 7.65089 27.4758 8.16457 27.2006 8.03956C12.3254 13.606 3.57365 28.9825 6.98503 44.9591C11.168 62.2585 27.7195 72.7459 44.8373 68.8114C50.0559 67.6113 55.182 64.9133 59.0942 61.2698C60.0215 60.4061 60.7638 59.3287 61.7452 58.5195L61.7791 58.1126C61.488 58.0081 61.6076 58.3081 61.4925 58.3331C61.109 58.415 60.5088 58.2672 60.096 58.3263C54.1215 59.1696 48.7405 57.9922 43.5513 55.8602C34.0459 51.953 26.5553 42.6793 24.4232 32.9602C22.7581 25.3663 23.5861 17.9451 26.8125 11.0489C27.1983 10.2216 27.6315 9.41697 28.0309 8.62144C28.1053 8.47142 28.6355 8.03956 28.4234 7.81908L28.4212 7.81681Z" fill="#FFFAB5" style="fill:#FFFAB5;fill:color(display-p3 1.0000 0.9805 0.7079);fill-opacity:1;"/>
<path d="M37.4866 0.106966V-99.893L-4.14783 91.0277L37.4866 0.106966ZM37.6017 0.27971L75.384 -92.3081L75.1812 -92.3908L74.9781 -92.4727L37.6017 0.27971ZM38.168 0.454727L-16.6144 84.1141L38.168 0.454727ZM38.9238 1.21389L120.55 -56.5539L120.099 -57.1913L119.638 -57.8216L38.9238 1.21389ZM39.5803 2.73904L139.233 -5.58712L139.228 -5.65087L139.222 -5.71461L39.5803 2.73904ZM32.55 13.581L123.071 56.0773L123.076 56.0675L123.08 56.0576L32.55 13.581ZM46.1098 50.1096L5.48702 141.487L7.19289 142.245L8.92588 142.939L46.1098 50.1096ZM60.9578 51.887L76.8064 150.623L76.8258 150.62L76.8452 150.617L60.9578 51.887ZM66.0907 50.3983L102.539 143.519L102.55 143.515L102.562 143.51L66.0907 50.3983ZM70.5219 49.6777L28.1036 140.235L28.8771 140.598L29.6567 140.947L70.5219 49.6777ZM71.5168 50.446L150.149 -11.3354L150.1 -11.3977L150.051 -11.46L71.5168 50.446ZM71.7267 54.6373L163.246 94.9387L163.262 94.9023L163.278 94.8658L71.7267 54.6373ZM49.9972 74.0301L18.1559 -20.7651L18.1527 -20.764L49.9972 74.0301ZM30.3209 75.3416L11.189 173.494L11.2157 173.5L11.2424 173.505L30.3209 75.3416ZM27.2615 74.4779L2.72743 171.422L2.73179 171.423L27.2615 74.4779ZM5.85918 58.4127L90.5475 5.23482L90.539 5.22121L90.5304 5.2076L5.85918 58.4127ZM0.909082 29.6871L-96.8548 8.65786L-96.8568 8.66747L-96.8589 8.67708L0.909082 29.6871ZM1.75064 26.3891L97.3289 55.7965L97.3302 55.7922L1.75064 26.3891ZM25.1971 2.13444L-7.4637 -92.3816L-7.49323 -92.3714L-7.52276 -92.3611L25.1971 2.13444ZM36.4713 0.00241037L34.9298 99.9905L35.0787 99.9928L35.2277 99.9947L36.4713 0.00241037ZM37.4888 0.106966V100.107L78.5348 -91.0809L37.4888 0.106966ZM28.4212 7.81681L-44.0123 76.7617L-43.2893 77.5213L-42.5505 78.2655L28.4212 7.81681ZM27.2006 8.03956L68.5523 -83.0101L30.8919 -100.114L-7.84709 -85.6176L27.2006 8.03956ZM6.98503 44.9591L-90.8105 65.8407L-90.5298 67.1553L-90.2139 68.4617L6.98503 44.9591ZM44.8373 68.8114L67.2379 166.27L67.2493 166.268L44.8373 68.8114ZM59.0942 61.2698L127.247 134.449L127.252 134.444L59.0942 61.2698ZM61.7452 58.5195L125.359 135.677L157.905 108.844L161.401 66.8087L61.7452 58.5195ZM61.7791 58.1126L161.435 66.4018L167.795 -10.0594L95.5874 -35.999L61.7791 58.1126ZM61.4925 58.3331L82.3567 156.132L82.5414 156.093L82.7258 156.053L61.4925 58.3331ZM60.096 58.3263L74.072 157.345L74.1684 157.331L74.2647 157.317L60.096 58.3263ZM43.5513 55.8602L5.53264 148.351L5.54048 148.354L5.54832 148.358L43.5513 55.8602ZM24.4232 32.9602L-73.2563 54.3778L-73.2541 54.3879L24.4232 32.9602ZM26.8125 11.0489L117.39 53.4256L117.416 53.3686L117.443 53.3116L26.8125 11.0489ZM28.0309 8.62144L117.402 53.4848L117.504 53.2819L117.605 53.0786L28.0309 8.62144ZM28.4234 7.81908L100.493 -61.5065L99.9483 -62.0723L99.3951 -62.6296L28.4234 7.81908ZM37.4866 0.106966L-4.14783 91.0277C-12.0624 87.4034 -18.6878 83.1211 -24.0858 78.9028C-29.4477 74.7127 -33.7238 70.4896 -37.0427 66.7793C-40.3622 63.0681 -42.9814 59.5816 -44.9913 56.6492C-47.0093 53.705 -48.6128 51.0269 -49.8499 48.8079C-51.0933 46.5774 -52.0937 44.5815 -52.8723 42.9384C-53.6547 41.2871 -54.2916 39.8255 -54.7895 38.6323C-55.7529 36.3235 -56.4333 34.4454 -56.7981 33.4117C-57.1706 32.356 -57.4428 31.5256 -57.5136 31.3097C-57.5549 31.1837 -57.5927 31.0675 -57.5802 31.1058C-57.5794 31.1085 -57.5689 31.1408 -57.5558 31.1808C-57.542 31.2231 -57.5212 31.2868 -57.4957 31.3644C-57.3249 31.8842 -56.6922 33.8122 -55.7572 36.2316C-54.8041 38.698 -53.3164 42.263 -51.163 46.3983C-49.0049 50.5428 -45.9568 55.6906 -41.7285 61.1903C-37.4612 66.7406 -31.8949 72.7738 -24.7467 78.4698C-17.517 84.2306 -9.16085 89.2498 0.225259 93.0321L37.6017 0.27971L74.9781 -92.4727C84.3416 -88.6994 92.678 -83.6921 99.8903 -77.9451C107.021 -72.263 112.572 -66.2457 116.827 -60.7124C121.042 -55.2297 124.079 -50.1 126.227 -45.9742C128.371 -41.8574 129.85 -38.3115 130.796 -35.8637C131.724 -33.4629 132.351 -31.5531 132.516 -31.0503C132.541 -30.9749 132.561 -30.9132 132.574 -30.873C132.586 -30.8351 132.596 -30.805 132.596 -30.8043C132.607 -30.7701 132.568 -30.8903 132.526 -31.0202C132.452 -31.244 132.178 -32.0818 131.803 -33.1444C131.436 -34.1851 130.753 -36.0697 129.787 -38.3843C129.288 -39.5804 128.65 -41.0448 127.866 -42.6987C127.086 -44.3444 126.084 -46.3428 124.84 -48.5755C123.601 -50.7969 121.997 -53.477 119.977 -56.4232C117.966 -59.3575 115.346 -62.8458 112.025 -66.5585C108.704 -70.2704 104.427 -74.4948 99.0635 -78.6861C93.664 -82.9056 87.0371 -87.1888 79.121 -90.8137L37.4866 0.106966ZM37.6017 0.27971L-0.180684 92.8675C8.28459 96.3219 15.4193 97.8705 19.1774 98.5802C20.8803 98.9018 22.2774 99.1161 22.2832 99.117C22.7032 99.1829 21.5638 99.0087 20.3634 98.7953C17.4576 98.2787 11.628 97.1231 4.56757 94.6178C-2.71776 92.0326 -9.85101 88.543 -16.6144 84.1141L38.168 0.454727L92.9503 -83.2047C86.0741 -87.7074 78.836 -91.2467 71.4511 -93.8672C64.2913 -96.4079 58.3675 -97.5843 55.3707 -98.1171C54.1248 -98.3386 52.9405 -98.5198 53.3161 -98.4608C53.3471 -98.4559 53.7083 -98.3994 54.1663 -98.3233C54.6486 -98.2431 55.3882 -98.1165 56.2898 -97.9463C59.9603 -97.2532 67.0078 -95.7261 75.384 -92.3081L37.6017 0.27971ZM38.168 0.454727L-16.6144 84.1141C-19.5498 82.1919 -21.763 80.5179 -22.8377 79.6904C-24.0779 78.7354 -25.0698 77.9249 -25.71 77.3933C-26.9677 76.3489 -27.9363 75.4916 -28.4188 75.0607C-29.4196 74.1671 -30.1798 73.4509 -30.4619 73.1843C-31.1151 72.5672 -31.6034 72.0882 -31.737 71.9571C-32.0974 71.6034 -32.3443 71.3549 -32.4207 71.2779C-32.5139 71.184 -32.696 71 -32.9535 70.7347C-33.0509 70.6345 -33.3858 70.2894 -33.8237 69.8256C-34.0129 69.6252 -34.5162 69.0911 -35.1509 68.3916C-35.4565 68.0547 -36.0653 67.3796 -36.8158 66.5091C-37.1125 66.1651 -39.3012 63.6529 -41.7906 60.2494L38.9238 1.21389L119.638 -57.8216C117.147 -61.2278 114.955 -63.744 114.654 -64.0931C113.899 -64.9687 113.284 -65.6501 112.972 -65.9944C112.324 -66.7087 111.803 -67.2621 111.592 -67.4855C111.111 -67.9951 110.717 -68.4012 110.551 -68.5723C110.156 -68.9794 109.795 -69.3449 109.523 -69.6196C109.267 -69.8772 108.84 -70.3056 108.338 -70.7977C108.134 -70.9979 107.585 -71.5358 106.886 -72.1962C106.581 -72.4845 105.802 -73.2185 104.786 -74.1254C104.296 -74.5629 103.321 -75.4258 102.058 -76.4746C101.539 -76.9056 97.9349 -79.9406 92.9503 -83.2047L38.168 0.454727ZM38.9238 1.21389L-42.7027 58.9817C-45.5152 55.0076 -47.3926 51.7167 -48.0439 50.565C-48.937 48.9856 -49.619 47.6757 -50.0575 46.8126C-50.9351 45.0852 -51.6493 43.5464 -52.2267 42.2337C-52.7592 41.0232 -53.6394 38.9536 -54.6006 36.2825C-55.0715 34.9737 -55.8786 32.6472 -56.7147 29.6733C-57.2357 27.8202 -59.2583 20.6617 -60.0617 11.1927L39.5803 2.73904L139.222 -5.71461C138.413 -15.2501 136.371 -22.4985 135.82 -24.4589C134.954 -27.54 134.106 -29.9913 133.586 -31.4363C132.527 -34.38 131.516 -36.7683 130.844 -38.2961C130.127 -39.9261 129.264 -41.781 128.25 -43.7759C128.024 -44.2209 125.164 -50.0345 120.55 -56.5539L38.9238 1.21389ZM39.5803 2.73904L-60.0724 11.0652C-61.1993 -2.42195 -59.5265 -17.1831 -53.8863 -31.759C-48.4837 -45.7213 -41.0199 -55.4079 -36.1223 -60.9178C-31.9784 -65.5797 -27.8321 -69.1416 -29.2424 -67.8752C-29.3514 -67.7774 -30.607 -66.6577 -32.0408 -65.2888C-33.5741 -63.8249 -35.8569 -61.5656 -38.4314 -58.6542L36.4803 7.58952L111.392 73.8332C107.365 78.3877 103.558 81.6753 104.38 80.937C104.39 80.9283 104.499 80.8301 104.596 80.7427C104.708 80.6424 104.876 80.4902 105.076 80.3089C105.466 79.9546 106.088 79.3862 106.829 78.6849C108.268 77.3242 110.648 75.0057 113.361 71.9538C118.889 65.7345 126.885 55.2795 132.637 40.4156C138.626 24.9381 140.464 9.1422 139.233 -5.58712L39.5803 2.73904ZM36.4803 7.58952L-38.4314 -58.6542C-46.3054 -49.7499 -53.2235 -39.0337 -57.9803 -28.8956L32.55 13.581L123.08 56.0576C121.837 58.7074 120.739 60.6966 120.062 61.8768C119.326 63.1592 118.639 64.2649 118.013 65.2223C117.388 66.1781 116.63 67.2815 115.71 68.5212C114.858 69.6687 113.411 71.5501 111.392 73.8332L36.4803 7.58952ZM32.55 13.581L-57.971 -28.9153C-88.2892 35.6652 -59.8945 112.421 5.48702 141.487L46.1098 50.1096L86.7325 -41.2676C124.024 -24.6891 140.254 19.4768 123.071 56.0773L32.55 13.581ZM46.1098 50.1096L8.92588 142.939C28.1127 150.625 51.6307 154.664 76.8064 150.623L60.9578 51.887L45.1093 -46.8491C60.0328 -49.2445 73.1632 -46.778 83.2937 -42.7201L46.1098 50.1096ZM60.9578 51.887L76.8452 150.617C88.1843 148.792 97.2593 145.586 102.539 143.519L66.0907 50.3983L29.6428 -42.7229C30.8515 -43.196 32.7004 -43.8751 35.0774 -44.5803C37.4127 -45.2732 40.8141 -46.1579 45.0705 -46.8429L60.9578 51.887ZM66.0907 50.3983L102.562 143.51C105.524 142.35 109.774 140.435 107.496 141.44C107.066 141.629 102.358 143.759 95.9683 145.605C89.0406 147.605 78.5836 149.774 65.7552 149.316C52.4673 148.841 39.6694 145.653 28.1036 140.235L70.5219 49.6777L112.94 -40.8799C100.537 -46.6896 86.9483 -50.0544 72.8992 -50.5566C59.3097 -51.0423 48.1217 -48.7508 40.4767 -46.5429C33.37 -44.4905 27.9581 -42.0686 26.8232 -41.5683C23.8396 -40.2531 27.3832 -41.8379 29.6197 -42.7139L66.0907 50.3983ZM70.5219 49.6777L29.6567 140.947C24.0878 138.453 19.9831 135.972 19.1947 135.5C17.6485 134.575 16.4471 133.799 15.8227 133.39C14.5405 132.552 13.5612 131.868 13.1735 131.597C12.2931 130.979 11.6315 130.493 11.4115 130.331C10.8569 129.923 10.4411 129.607 10.1836 129.409C9.95971 129.238 9.40347 128.81 8.65926 128.211C8.35157 127.964 7.46048 127.245 6.33042 126.275C5.8007 125.82 4.65124 124.826 3.23642 123.504C2.52335 122.838 1.35628 121.729 -0.0352059 120.304C-1.13923 119.174 -3.88857 116.321 -7.01756 112.352L71.5168 50.446L150.051 -11.46C144.916 -17.9752 139.956 -22.4676 139.756 -22.6544C138.322 -23.9942 137.147 -25.011 136.588 -25.4913C135.398 -26.5124 134.428 -27.2958 134.029 -27.6168C133.102 -28.3626 132.313 -28.9726 131.855 -29.3232C131.364 -29.6996 130.715 -30.1916 129.977 -30.7344C129.666 -30.9636 128.926 -31.5068 127.986 -32.1659C127.568 -32.4586 126.564 -33.1594 125.262 -34.0104C124.628 -34.425 123.418 -35.2067 121.865 -36.1357C121.07 -36.6114 116.96 -39.0962 111.387 -41.5913L70.5219 49.6777ZM71.5168 50.446L-7.11562 112.227C-18.4167 97.8438 -27.6576 77.3056 -27.7088 52.6858C-27.7514 32.2046 -21.1585 17.4441 -19.8248 14.4088L71.7267 54.6373L163.278 94.8658C165.3 90.2645 172.336 74.106 172.291 52.2697C172.237 26.2946 162.547 4.44374 150.149 -11.3354L71.5168 50.446ZM71.7267 54.6373L-19.7927 14.3359C-14.5391 2.40559 -7.69586 -4.80272 -3.2941 -8.66532C1.18768 -12.5981 8.0346 -17.3654 18.1559 -20.7651L49.9972 74.0301L81.8385 168.825C114.34 157.908 146.953 131.938 163.246 94.9387L71.7267 54.6373ZM49.9972 74.0301L18.1527 -20.764C27.9353 -24.0503 38.4739 -24.945 49.3994 -22.8216L30.3209 75.3416L11.2424 173.505C35.4299 178.206 59.9614 176.175 81.8417 168.824L49.9972 74.0301ZM30.3209 75.3416L49.4528 -22.8112C52.1592 -22.2837 54.3668 -21.7248 55.8929 -21.3074C57.3629 -20.9054 58.4455 -20.5653 58.6372 -20.5052C58.6941 -20.4874 58.8175 -20.4484 58.5368 -20.5372C58.3654 -20.5915 57.9254 -20.7307 57.4 -20.8923C56.8577 -21.0592 56.0885 -21.292 55.1724 -21.5545C54.2514 -21.8184 53.1073 -22.1339 51.7912 -22.4669L27.2615 74.4779L2.73179 171.423C0.66155 170.899 -0.888155 170.426 -1.41399 170.264C-1.69354 170.178 -1.88656 170.117 -1.80931 170.141C-1.79476 170.146 -1.77907 170.151 -1.74284 170.162C-1.71213 170.172 -1.66386 170.188 -1.61172 170.204C-1.50772 170.237 -1.34657 170.288 -1.15805 170.347C0.0635921 170.73 4.94199 172.277 11.189 173.494L30.3209 75.3416ZM27.2615 74.4779L51.7956 -22.4658C62.5058 -19.7553 70.2903 -15.2152 75.5025 -11.2756C80.8066 -7.26662 86.0547 -1.92025 90.5475 5.23482L5.85918 58.4127L-78.8292 111.591C-61.803 138.706 -33.0769 162.36 2.72743 171.422L27.2615 74.4779ZM5.85918 58.4127L90.5304 5.2076C99.2017 19.0072 101.918 35.6138 98.6771 50.6972L0.909082 29.6871L-96.8589 8.67708C-104.495 44.2124 -98.101 80.9211 -78.8121 111.618L5.85918 58.4127ZM0.909082 29.6871L98.6729 50.7164C98.7002 50.5898 98.5447 51.3256 98.2783 52.3885C97.982 53.5705 97.6573 54.7291 97.3289 55.7965L1.75064 26.3891L-93.8276 -3.01832C-95.3892 2.05703 -96.299 6.07437 -96.8548 8.65786L0.909082 29.6871ZM1.75064 26.3891L97.3302 55.7922C91.4339 74.9592 76.8654 90.0689 57.9169 96.63L25.1971 2.13444L-7.52276 -92.3611C-48.9475 -78.0175 -81.0061 -44.6968 -93.8289 -3.014L1.75064 26.3891ZM25.1971 2.13444L57.8578 96.6504C56.4829 97.1256 54.0928 97.8834 50.8353 98.5548C47.7491 99.1909 42.2082 100.103 34.9298 99.9905L36.4713 0.00241037L38.0128 -99.9857C17.2772 -100.305 0.444347 -95.1143 -7.4637 -92.3816L25.1971 2.13444ZM36.4713 0.00241037L35.2277 99.9947C32.5106 99.9609 30.4062 99.8153 30.2471 99.8051C29.5082 99.7573 28.7425 99.6987 27.9354 99.6252C27.3098 99.5682 25.7218 99.4188 23.661 99.1348C22.7091 99.0037 20.5777 98.6984 17.8797 98.1607C16.5264 97.8911 14.2354 97.4067 11.4263 96.6492C9.27306 96.0686 3.46144 94.4541 -3.55715 91.2948L37.4888 0.106966L78.5348 -91.0809C67.1176 -96.2201 57.0428 -97.9674 56.9647 -97.983C54.2058 -98.5328 51.9986 -98.8502 50.9607 -98.9932C48.7277 -99.3009 46.9262 -99.473 46.0823 -99.5499C45.2476 -99.6259 41.8542 -99.9384 37.7149 -99.9899L36.4713 0.00241037ZM37.4888 0.106966V-99.893H37.4866V0.106966V100.107H37.4888V0.106966ZM28.4212 7.81681L100.855 -61.1281C76.3699 -86.8517 47.1476 -91.3209 33.9135 -92.0604C20.3629 -92.8175 9.87587 -90.5884 5.97651 -89.6995C1.18001 -88.6061 -2.49439 -87.3895 -3.92875 -86.9056C-4.80998 -86.6083 -5.51537 -86.3569 -5.91128 -86.2144C-6.11982 -86.1394 -6.29023 -86.0773 -6.39508 -86.039C-6.44895 -86.0194 -6.49375 -86.003 -6.52289 -85.9923C-6.54956 -85.9825 -6.57484 -85.9732 -6.57726 -85.9723C-6.84051 -85.8758 -5.70668 -86.2974 -4.35756 -86.7535C-3.01494 -87.2073 -0.0403582 -88.1858 3.83908 -89.1299C7.38125 -89.992 14.5046 -91.5397 23.6794 -91.8744C32.2503 -92.1871 49.3297 -91.7403 68.5523 -83.0101L27.2006 8.03956L-14.1511 99.0892C5.14029 107.851 22.3045 108.309 30.9718 107.993C40.2429 107.654 47.4742 106.088 51.1313 105.198C55.1258 104.226 58.2224 103.21 59.6898 102.714C60.5196 102.434 61.1898 102.195 61.5927 102.05C61.8015 101.975 61.9734 101.913 62.0847 101.872C62.1891 101.834 62.2788 101.801 62.287 101.798C62.6377 101.669 61.4178 102.124 60.005 102.6C58.6881 103.045 55.1247 104.227 50.4286 105.298C47.9659 105.859 44.4668 106.559 40.2211 107.07C36.0813 107.568 30.0399 108.035 22.7559 107.628C9.59607 106.893 -19.567 102.444 -44.0123 76.7617L28.4212 7.81681ZM27.2006 8.03956L-7.84709 -85.6176C-68.3526 -62.9757 -104.739 0.611195 -90.8105 65.8407L6.98503 44.9591L104.781 24.0774C111.886 57.3538 93.0035 90.1877 62.2482 101.697L27.2006 8.03956ZM6.98503 44.9591L-90.2139 68.4617C-73.5633 137.323 -4.95372 182.863 67.2379 166.27L44.8373 68.8114L22.4367 -28.6474C60.3927 -37.3714 95.8993 -12.8058 104.184 21.4564L6.98503 44.9591ZM44.8373 68.8114L67.2493 166.268C89.3213 161.192 110.29 150.242 127.247 134.449L59.0942 61.2698L-9.05865 -11.9094C0.074298 -20.415 10.7905 -25.9691 22.4253 -28.6447L44.8373 68.8114ZM59.0942 61.2698L127.252 134.444C128.719 133.078 129.976 131.831 131.002 130.779C132.025 129.732 132.876 128.818 133.507 128.13C134.127 127.452 134.628 126.889 134.891 126.592C135.024 126.443 135.143 126.309 135.189 126.256C135.256 126.18 135.246 126.191 135.228 126.212C135.191 126.254 134.914 126.566 134.524 126.993C134.124 127.431 133.506 128.097 132.724 128.901C131.188 130.479 128.693 132.928 125.359 135.677L61.7452 58.5195L-1.86856 -18.638C-5.69332 -15.4846 -8.64908 -12.5976 -10.6291 -10.5623C-12.5348 -8.60349 -14.0059 -6.94094 -14.4291 -6.46351C-14.5534 -6.32329 -14.6693 -6.19209 -14.7074 -6.14887C-14.7672 -6.08117 -14.7541 -6.09616 -14.7278 -6.12574C-14.6769 -6.1831 -14.3885 -6.50839 -13.9835 -6.95062C-13.2051 -7.80047 -11.4703 -9.66306 -9.06347 -11.9049L59.0942 61.2698ZM61.7452 58.5195L161.401 66.8087L161.435 66.4018L61.7791 58.1126L-37.8768 49.8234L-37.9106 50.2303L61.7452 58.5195ZM61.7791 58.1126L95.5874 -35.999C89.9343 -38.0298 80.6117 -40.8209 68.738 -41.6601C56.3952 -42.5324 39.5022 -41.3876 21.4798 -33.4874C-18.0835 -16.1444 -30.5868 18.0768 -33.6511 27.6298C-34.5897 30.5557 -35.209 32.9538 -35.5565 34.3702C-35.7374 35.1073 -35.8763 35.7101 -35.9631 36.0927C-36.0452 36.4547 -36.1094 36.7479 -36.1117 36.7583C-36.3991 38.0658 -35.4248 33.2407 -33.7751 28.0396C-32.1597 22.9465 -27.6148 9.66518 -16.5722 -4.14328C-10.6628 -11.5327 -2.78345 -19.2241 7.44247 -25.7968C17.779 -32.4405 28.9465 -36.9285 40.2593 -39.3866L61.4925 58.3331L82.7258 156.053C94.0529 153.592 105.233 149.098 115.581 142.448C125.818 135.868 133.706 128.168 139.624 120.768C150.683 106.938 155.24 93.6303 156.865 88.5072C158.524 83.2761 159.506 78.4177 159.226 79.6913C159.225 79.6933 159.163 79.978 159.083 80.3314C158.998 80.7055 158.861 81.2998 158.682 82.0284C158.339 83.4279 157.724 85.8092 156.791 88.7188C155.081 94.0505 151.21 104.714 142.954 116.267C133.945 128.876 120.413 141.517 101.776 149.686C83.7847 157.573 66.9311 158.711 54.6379 157.842C42.8137 157.007 33.5511 154.229 27.9708 152.224L61.7791 58.1126ZM61.4925 58.3331L40.6284 -39.4661C46.0611 -40.6251 50.7097 -41.1381 54.1139 -41.3847C57.5524 -41.6338 60.4096 -41.6584 62.3888 -41.6343C64.3857 -41.61 65.9814 -41.5283 66.9051 -41.4736C67.805 -41.4203 68.504 -41.365 68.5235 -41.3635C68.809 -41.3414 68.1409 -41.3941 67.5826 -41.4331C66.9061 -41.4804 65.6044 -41.5656 63.9748 -41.6234C62.3506 -41.6809 59.9813 -41.7274 57.1274 -41.638C54.2991 -41.5494 50.4494 -41.3121 45.9272 -40.6648L60.096 58.3263L74.2647 157.317C69.8457 157.95 66.1051 158.179 63.3902 158.264C60.6496 158.35 58.398 158.305 56.8941 158.251C55.3847 158.198 54.2061 158.12 53.6537 158.081C53.2196 158.051 52.6767 158.008 53.087 158.04C53.2313 158.051 54.0547 158.116 55.0768 158.176C56.1229 158.238 57.8389 158.325 59.9523 158.351C62.0482 158.376 65.0184 158.349 68.5648 158.093C72.0769 157.838 76.8281 157.312 82.3567 156.132L61.4925 58.3331ZM60.096 58.3263L46.1199 -40.6922C62.7954 -43.0459 75.7719 -39.013 81.5542 -36.6373L43.5513 55.8602L5.54832 148.358C21.7091 154.997 45.4477 161.385 74.072 157.345L60.096 58.3263ZM43.5513 55.8602L81.5699 -36.6308C93.6917 -31.6482 102.384 -24.272 108.271 -17.1561C114.127 -10.0778 119.447 -0.565351 122.1 11.5325L24.4232 32.9602L-73.2541 54.3879C-64.3269 95.0823 -35.3029 131.566 5.53264 148.351L43.5513 55.8602ZM24.4232 32.9602L122.103 11.5426C125.095 25.1918 123.573 40.2082 117.39 53.4256L26.8125 11.0489L-63.7646 -31.3277C-76.4011 -4.31806 -79.5793 25.5407 -73.2563 54.3778L24.4232 32.9602ZM26.8125 11.0489L117.443 53.3116C117.289 53.6418 117.15 53.9332 117.031 54.1804C116.912 54.4272 116.809 54.6371 116.727 54.8027C116.645 54.9679 116.58 55.098 116.537 55.1832C116.494 55.2675 116.467 55.3199 116.465 55.3247C116.464 55.3264 116.475 55.3058 116.515 55.2281C116.536 55.1861 116.554 55.1521 116.586 55.0901C116.613 55.0358 116.649 54.9665 116.687 54.892C116.763 54.7444 116.867 54.5424 116.984 54.3129C117.101 54.0814 117.244 53.8005 117.402 53.4848L28.0309 8.62144L-61.3407 -36.242C-61.2342 -36.4541 -61.1719 -36.5746 -61.2348 -36.452C-61.2773 -36.3692 -61.2872 -36.3501 -61.3714 -36.1862C-61.4348 -36.0628 -61.5277 -35.8819 -61.6318 -35.6782C-62.0113 -34.9354 -62.86 -33.2679 -63.8179 -31.2137L26.8125 11.0489ZM28.0309 8.62144L117.605 53.0786C112.602 63.1589 106.921 70.0742 106.262 70.9009C105.351 72.0429 104.603 72.9279 104.207 73.3924C103.803 73.8669 103.484 74.2308 103.432 74.2908C102.49 75.3677 105.542 71.9815 108.424 68.1274C110.392 65.4953 119.473 53.5274 124.631 35.4288C127.504 25.352 130.224 9.7577 127.051 -8.87584C123.651 -28.8456 114.313 -47.1395 100.493 -61.5065L28.4234 7.81908L-43.6458 77.1446C-57.4127 62.8328 -66.7213 44.6006 -70.1105 24.6973C-73.2721 6.13013 -70.5587 -9.39308 -67.7074 -19.396C-62.5906 -37.347 -53.6073 -49.1563 -51.7547 -51.634C-48.9885 -55.3339 -46.0694 -58.5702 -47.1248 -57.3632C-47.2057 -57.2707 -47.5515 -56.8755 -47.9814 -56.3713C-48.4029 -55.877 -49.1742 -54.9637 -50.1061 -53.7951C-50.8078 -52.9152 -56.5219 -45.9535 -61.5435 -35.8357L28.0309 8.62144ZM28.4234 7.81908L99.3951 -62.6296L99.3929 -62.6319L28.4212 7.81681L-42.5505 78.2655L-42.5483 78.2678L28.4234 7.81908Z" fill="#FFFAB5" style="fill:#FFFAB5;fill:color(display-p3 1.0000 0.9805 0.7079);fill-opacity:1;" mask="url(#path-10-inside-1_34_24)"/>
<circle cx="62.1686" cy="8.1237" r="3.02583" fill="#FFFAB5" style="fill:#FFFAB5;fill:color(display-p3 1.0000 0.9805 0.7079);fill-opacity:1;"/>
<circle cx="47.2761" cy="22.4523" r="2.32378" fill="#FFFAB5" style="fill:#FFFAB5;fill:color(display-p3 1.0000 0.9805 0.7079);fill-opacity:1;"/>
<circle cx="65.1944" cy="27.986" r="5.53374" fill="#FFFAB5" style="fill:#FFFAB5;fill:color(display-p3 1.0000 0.9805 0.7079);fill-opacity:1;"/>
</svg>
