<svg width="267" height="35" viewBox="0 0 267 35" fill="none" xmlns="http://www.w3.org/2000/svg">
<path d="M246.052 29.7301C244.434 29.7301 243.278 29.3191 242.584 28.497C241.89 27.6749 241.544 26.4932 241.544 24.9518C241.544 24.4123 241.621 23.5902 241.775 22.4855C241.929 21.3552 242.122 20.1092 242.353 18.7476C242.61 17.3604 242.879 15.9731 243.162 14.5859C243.445 13.1986 243.714 11.9655 243.971 10.8865L241.967 7.80369C243.021 7.21281 244.151 6.71186 245.358 6.30082C246.592 5.86409 247.838 5.64572 249.096 5.64572C250.175 5.64572 250.972 5.91547 251.486 6.45496C251.999 6.96876 252.256 7.67524 252.256 8.57439C252.256 9.24233 252.166 9.93596 251.987 10.6553C251.807 11.3746 251.601 11.9912 251.37 12.505L251.755 12.6976C253.271 10.1029 254.928 8.27895 256.726 7.22566C258.525 6.17237 260.361 5.64572 262.237 5.64572C263.804 5.64572 264.973 6.03107 265.744 6.80177C266.514 7.54678 266.9 8.71568 266.9 10.3085C266.9 11.6957 266.707 13.1729 266.322 14.74C265.962 16.2814 265.589 17.8742 265.204 19.5183C264.819 21.1368 264.626 22.7424 264.626 24.3352C264.626 25.928 264.896 27.0969 265.435 27.8419C264.074 29.1007 262.661 29.7301 261.196 29.7301C259.578 29.7301 258.422 29.3191 257.728 28.497C257.035 27.6749 256.688 26.4932 256.688 24.9518C256.688 24.104 256.803 23.1663 257.035 22.1387C257.266 21.0854 257.536 20.0193 257.844 18.9403C258.152 17.8613 258.422 16.8466 258.653 15.896C258.884 14.9455 259 14.1234 259 13.4298C259 12.8903 258.897 12.4664 258.692 12.1581C258.512 11.8499 258.178 11.6957 257.69 11.6957C256.996 11.6957 256.187 12.004 255.262 12.6206C254.337 13.2371 253.425 14.1106 252.526 15.241C251.653 16.3456 250.92 17.6687 250.33 19.2101C249.764 20.7515 249.482 22.4599 249.482 24.3352C249.482 25.928 249.751 27.0969 250.291 27.8419C248.929 29.1007 247.516 29.7301 246.052 29.7301Z" fill="#FFFAB5" style="fill:#FFFAB5;fill:color(display-p3 1.0000 0.9805 0.7079);fill-opacity:1;"/>
<path d="M224.517 29.7301C222.256 29.7301 220.304 29.3062 218.66 28.4585C217.041 27.585 215.795 26.3904 214.922 24.8747C214.048 23.359 213.612 21.5992 213.612 19.5954C213.612 16.8209 214.215 14.3932 215.423 12.3123C216.656 10.2057 218.339 8.57439 220.471 7.41833C222.603 6.23659 225.031 5.64572 227.754 5.64572C228.191 5.64572 228.627 5.67141 229.064 5.72279C229.527 5.74848 230.015 5.82555 230.529 5.954C230.657 6.31366 230.76 6.75039 230.837 7.26419C230.914 7.7523 230.965 8.27895 230.991 8.84413C231.222 8.76706 231.466 8.70284 231.723 8.65146C232.006 8.60007 232.301 8.57439 232.609 8.57439C233.509 8.57439 234.356 8.81844 235.153 9.30655C235.949 9.76897 236.604 10.5011 237.118 11.5031C237.632 12.505 237.889 13.7766 237.889 15.318C237.889 17.6044 237.503 19.6468 236.733 21.4451C235.988 23.2177 234.973 24.7206 233.688 25.9537C232.404 27.1868 230.965 28.1245 229.372 28.7668C227.805 29.409 226.187 29.7301 224.517 29.7301ZM225.712 24.9903C226.303 24.9903 226.919 24.849 227.561 24.5664C228.204 24.2838 228.833 23.77 229.45 23.025C230.066 22.28 230.58 21.2267 230.991 19.8652C229.886 19.1715 229.09 18.3238 228.602 17.3218C228.114 16.2942 227.87 15.1639 227.87 13.9308C227.87 13.5711 227.934 13.1087 228.062 12.5435C228.191 11.9783 228.409 11.4003 228.717 10.8094C229.051 10.2185 229.501 9.73044 230.066 9.34509C228.293 9.70475 226.842 10.2442 225.712 10.9636C224.581 11.6829 223.695 12.5178 223.053 13.4683C222.436 14.3932 221.999 15.3566 221.743 16.3585C221.511 17.3347 221.396 18.2724 221.396 19.1715C221.396 20.1991 221.563 21.1625 221.897 22.0617C222.231 22.9351 222.719 23.6416 223.361 24.1811C224.003 24.7206 224.787 24.9903 225.712 24.9903Z" fill="#FFFAB5" style="fill:#FFFAB5;fill:color(display-p3 1.0000 0.9805 0.7079);fill-opacity:1;"/>
<path d="M196.971 29.7301C194.71 29.7301 192.757 29.3062 191.113 28.4585C189.495 27.585 188.249 26.3904 187.375 24.8747C186.502 23.359 186.065 21.5992 186.065 19.5954C186.065 16.8209 186.669 14.3932 187.876 12.3123C189.109 10.2057 190.792 8.57439 192.924 7.41833C195.057 6.23659 197.484 5.64572 200.207 5.64572C200.644 5.64572 201.081 5.67141 201.518 5.72279C201.98 5.74848 202.468 5.82555 202.982 5.954C203.11 6.31366 203.213 6.75039 203.29 7.26419C203.367 7.7523 203.419 8.27895 203.444 8.84413C203.676 8.76706 203.92 8.70284 204.177 8.65146C204.459 8.60007 204.755 8.57439 205.063 8.57439C205.962 8.57439 206.81 8.81844 207.606 9.30655C208.403 9.76897 209.058 10.5011 209.572 11.5031C210.085 12.505 210.342 13.7766 210.342 15.318C210.342 17.6044 209.957 19.6468 209.186 21.4451C208.441 23.2177 207.426 24.7206 206.142 25.9537C204.857 27.1868 203.419 28.1245 201.826 28.7668C200.259 29.409 198.64 29.7301 196.971 29.7301ZM198.165 24.9903C198.756 24.9903 199.373 24.849 200.015 24.5664C200.657 24.2838 201.286 23.77 201.903 23.025C202.52 22.28 203.033 21.2267 203.444 19.8652C202.34 19.1715 201.543 18.3238 201.055 17.3218C200.567 16.2942 200.323 15.1639 200.323 13.9308C200.323 13.5711 200.387 13.1087 200.516 12.5435C200.644 11.9783 200.863 11.4003 201.171 10.8094C201.505 10.2185 201.954 9.73044 202.52 9.34509C200.747 9.70475 199.295 10.2442 198.165 10.9636C197.035 11.6829 196.148 12.5178 195.506 13.4683C194.89 14.3932 194.453 15.3566 194.196 16.3585C193.965 17.3347 193.849 18.2724 193.849 19.1715C193.849 20.1991 194.016 21.1625 194.35 22.0617C194.684 22.9351 195.172 23.6416 195.814 24.1811C196.457 24.7206 197.24 24.9903 198.165 24.9903Z" fill="#FFFAB5" style="fill:#FFFAB5;fill:color(display-p3 1.0000 0.9805 0.7079);fill-opacity:1;"/>
<path d="M171.383 34.9564C169.301 34.9564 167.826 34.366 166.956 33.1852C166.117 31.9734 165.697 30.1557 165.697 27.732C165.697 26.2406 165.93 24.0189 166.396 21.067C166.862 18.1152 167.53 14.2467 168.4 9.46151C167.686 9.55473 166.769 9.69456 165.65 9.88099C164.563 10.0674 163.46 10.2694 162.341 10.4869C161.223 10.6733 160.291 10.8598 159.545 11.0462C159.358 10.4558 159.25 9.88099 159.219 9.32169C159.187 8.76238 159.172 8.32737 159.172 8.01665C159.172 6.24553 159.483 4.80066 160.104 3.68206C160.757 2.56345 161.611 1.74004 162.668 1.21181C163.724 0.68358 164.874 0.419464 166.117 0.419464C167.701 0.419464 169.27 0.574826 170.824 0.885549C172.378 1.1652 173.931 1.46039 175.485 1.77111C177.07 2.08183 178.685 2.26827 180.332 2.33041C181.482 2.11291 182.756 1.83325 184.154 1.49146C185.583 1.14967 186.826 0.823405 187.883 0.51268C188.069 1.10306 188.178 1.67789 188.209 2.23719C188.24 2.7965 188.256 3.23151 188.256 3.54223C188.256 5.31336 187.898 6.75822 187.184 7.87682C186.5 8.99543 185.568 9.81884 184.387 10.3471C183.237 10.8753 181.963 11.1394 180.565 11.1394C180.161 11.1394 179.773 11.1394 179.4 11.1394C179.027 11.1083 178.67 11.0773 178.328 11.0462C178.048 12.4445 177.753 13.9049 177.442 15.4274C177.163 16.9499 176.899 18.4259 176.65 19.8552C176.402 21.2535 176.184 22.5119 175.998 23.6305C175.842 24.718 175.765 25.5414 175.765 26.1007C175.765 27.6854 175.873 29.0215 176.091 30.1091C176.339 31.1966 176.697 32.1132 177.163 32.859C175.298 34.2572 173.372 34.9564 171.383 34.9564Z" fill="#FFFAB5" style="fill:#FFFAB5;fill:color(display-p3 1.0000 0.9805 0.7079);fill-opacity:1;"/>
<path d="M113.71 32.4416C112.091 32.4416 110.935 32.0305 110.242 31.2084C109.548 30.3864 109.201 29.2046 109.201 27.6632C109.201 27.1237 109.278 26.3016 109.432 25.197C109.587 24.0666 109.779 22.8206 110.01 21.4591C110.267 20.0718 110.537 18.6845 110.82 17.2973C111.102 15.91 111.372 14.6769 111.629 13.5979L109.625 10.5151C110.678 9.92424 111.809 9.42328 113.016 9.01224C114.249 8.57551 115.495 8.35715 116.754 8.35715C117.833 8.35715 118.63 8.62689 119.143 9.16638C119.657 9.68018 119.914 10.3867 119.914 11.2858C119.914 11.9538 119.824 12.6474 119.644 13.3667C119.464 14.086 119.259 14.7026 119.028 15.2164L119.413 15.4091C120.929 12.8144 122.522 10.9904 124.191 9.93709C125.861 8.88379 127.634 8.35715 129.509 8.35715C130.871 8.35715 131.988 8.70396 132.862 9.3976C133.735 10.0655 134.172 11.1574 134.172 12.6731C134.172 13.4438 134.044 14.2915 133.787 15.2164L134.172 15.4091C135.688 12.8144 137.28 10.9904 138.95 9.93709C140.62 8.88379 142.393 8.35715 144.268 8.35715C145.835 8.35715 147.004 8.7425 147.775 9.5132C148.546 10.2582 148.931 11.4271 148.931 13.0199C148.931 14.4072 148.738 15.8843 148.353 17.4514C147.993 18.9928 147.621 20.5856 147.235 22.2298C146.85 23.8482 146.657 25.4539 146.657 27.0467C146.657 28.6394 146.927 29.8083 147.467 30.5533C146.105 31.8122 144.692 32.4416 143.228 32.4416C141.609 32.4416 140.453 32.0305 139.76 31.2084C139.066 30.3864 138.719 29.2046 138.719 27.6632C138.719 26.8154 138.835 25.8778 139.066 24.8502C139.297 23.7969 139.567 22.7307 139.875 21.6517C140.183 20.5728 140.453 19.558 140.684 18.6075C140.916 17.6569 141.031 16.8349 141.031 16.1412C141.031 15.6017 140.928 15.1779 140.723 14.8696C140.543 14.5613 140.209 14.4072 139.721 14.4072C139.027 14.4072 138.231 14.7154 137.332 15.332C136.458 15.9486 135.598 16.822 134.75 17.9524C133.928 19.057 133.247 20.3801 132.708 21.9215C132.168 23.4629 131.898 25.1713 131.898 27.0467C131.898 28.6394 132.168 29.8083 132.708 30.5533C131.346 31.8122 129.933 32.4416 128.469 32.4416C126.85 32.4416 125.694 32.0305 125.001 31.2084C124.307 30.3864 123.96 29.2046 123.96 27.6632C123.96 26.8154 124.076 25.8778 124.307 24.8502C124.538 23.7969 124.808 22.7307 125.116 21.6517C125.425 20.5728 125.694 19.558 125.925 18.6075C126.157 17.6569 126.272 16.8349 126.272 16.1412C126.272 15.6017 126.17 15.1779 125.964 14.8696C125.784 14.5613 125.45 14.4072 124.962 14.4072C124.268 14.4072 123.472 14.7154 122.573 15.332C121.699 15.9486 120.839 16.822 119.991 17.9524C119.169 19.057 118.488 20.3801 117.949 21.9215C117.409 23.4629 117.139 25.1713 117.139 27.0467C117.139 28.6394 117.409 29.8083 117.949 30.5533C116.587 31.8122 115.174 32.4416 113.71 32.4416Z" fill="#FFFAB5" style="fill:#FFFAB5;fill:color(display-p3 1.0000 0.9805 0.7079);fill-opacity:1;"/>
<path d="M87.4549 32.4416C86.0162 32.4416 84.7446 32.0691 83.6399 31.324C82.5609 30.579 81.726 29.5257 81.1351 28.1642C80.5442 26.8026 80.2488 25.2098 80.2488 23.3858C80.2488 21.2535 80.6213 19.2754 81.3663 17.4514C82.137 15.6274 83.1903 14.0346 84.5262 12.6731C85.8878 11.3115 87.4805 10.2582 89.3045 9.5132C91.1285 8.7425 93.1067 8.35715 95.2389 8.35715C95.8555 8.35715 96.3822 8.38284 96.8189 8.43422C97.2813 8.45991 97.7694 8.53698 98.2832 8.66543C98.4374 9.38475 98.5273 10.0142 98.553 10.5536C99.1438 10.1683 99.7989 9.87286 100.518 9.66734C101.238 9.43613 101.906 9.32052 102.522 9.32052C104.397 9.32052 105.335 10.3353 105.335 12.3648C105.335 13.0327 105.207 13.9447 104.95 15.1008C104.719 16.2311 104.436 17.49 104.102 18.8772C103.794 20.2388 103.511 21.6389 103.254 23.0775C103.023 24.4905 102.907 25.8135 102.907 27.0467C102.907 28.7165 103.306 29.8854 104.102 30.5533C102.663 31.8122 101.135 32.4416 99.5163 32.4416C98.0263 32.4416 96.9216 31.9791 96.2023 31.0543C95.5087 30.1295 95.1619 28.6908 95.1619 26.7384L94.7765 26.5457C94.0829 28.3954 93.081 29.8469 91.7708 30.9002C90.4863 31.9278 89.0476 32.4416 87.4549 32.4416ZM90.4991 25.4282C91.501 25.4282 92.4773 25.0685 93.4278 24.3492C94.3783 23.6299 95.1747 22.6408 95.817 21.382C95.9197 20.3801 96.0225 19.4424 96.1253 18.5689C96.2537 17.6698 96.4078 16.7193 96.5877 15.7173C96.7932 14.7154 97.0372 13.5337 97.3198 12.1721C96.0096 12.1721 94.7637 12.429 93.5819 12.9428C92.4259 13.4309 91.3854 14.1117 90.4606 14.9852C89.5358 15.8586 88.8036 16.8606 88.2641 17.9909C87.7503 19.0956 87.4934 20.2645 87.4934 21.4976C87.4934 22.7564 87.7503 23.7326 88.2641 24.4263C88.8036 25.0942 89.5486 25.4282 90.4991 25.4282Z" fill="#FFFAB5" style="fill:#FFFAB5;fill:color(display-p3 1.0000 0.9805 0.7079);fill-opacity:1;"/>
<path d="M66.1362 32.4416C63.7471 32.4416 61.7304 32.0177 60.0862 31.1699C58.4421 30.3221 57.1961 29.1404 56.3483 27.6247C55.5262 26.0833 55.1152 24.3107 55.1152 22.3068C55.1152 20.2259 55.4877 18.3377 56.2327 16.6422C57.0034 14.921 58.0696 13.4438 59.4311 12.2107C60.7927 10.9775 62.3726 10.027 64.1709 9.35906C65.9949 8.69112 67.9602 8.35715 70.0668 8.35715C72.5587 8.35715 74.3956 8.90948 75.5773 10.0142C76.7591 11.1188 77.3499 12.5061 77.3499 14.1759C77.3499 15.6146 76.8747 16.9762 75.9241 18.2607C74.9993 19.5195 73.4964 20.5471 71.4155 21.3435C69.3346 22.1142 66.5601 22.5124 63.092 22.538C63.169 24.1822 63.5415 25.4796 64.2095 26.4301C64.9031 27.3549 65.7637 27.8174 66.7913 27.8174C67.3051 27.8174 67.8446 27.7017 68.4098 27.4705C68.975 27.2136 69.4502 26.7769 69.8356 26.1603C70.2209 25.5181 70.4136 24.6446 70.4136 23.54C72.1605 23.54 73.535 23.7326 74.5369 24.118C75.5388 24.5033 76.0397 25.197 76.0397 26.1989C76.0397 27.1237 75.6415 28.0743 74.8452 29.0505C74.0488 30.001 72.9056 30.8102 71.4155 31.4782C69.9512 32.1204 68.1914 32.4416 66.1362 32.4416ZM63.4388 19.4552C65.3142 19.3011 66.817 18.9543 67.9474 18.4148C69.0777 17.8753 69.8998 17.2587 70.4136 16.5651C70.9274 15.8715 71.1843 15.2292 71.1843 14.6384C71.1843 14.1246 71.0302 13.7007 70.7219 13.3667C70.4136 13.0327 69.9769 12.8658 69.4117 12.8658C68.4869 12.8658 67.6263 13.1869 66.8299 13.8291C66.0335 14.4714 65.3398 15.3063 64.749 16.3339C64.1838 17.3358 63.7471 18.3763 63.4388 19.4552Z" fill="#FFFAB5" style="fill:#FFFAB5;fill:color(display-p3 1.0000 0.9805 0.7079);fill-opacity:1;"/>
<path d="M40.6251 32.4416C39.058 32.4416 37.9405 32.0305 37.2726 31.2084C36.6046 30.3864 36.2707 29.2046 36.2707 27.6632C36.2707 27.1237 36.3477 26.3016 36.5019 25.197C36.656 24.0666 36.8487 22.8206 37.0799 21.4591C37.3368 20.0718 37.6065 18.6845 37.8891 17.2973C38.1717 15.91 38.4415 14.6769 38.6984 13.5979L36.6945 10.5151C38.0304 9.92424 39.2636 9.42328 40.3939 9.01224C41.55 8.57551 42.5776 8.35715 43.4767 8.35715C44.1447 8.35715 44.6328 8.58836 44.9411 9.05078C45.2493 9.5132 45.4035 10.1041 45.4035 10.8234C45.4035 11.6455 45.2622 12.5703 44.9796 13.5979C44.697 14.5998 44.4144 15.5504 44.1318 16.4495L44.5172 16.6422C45.4163 13.9961 46.4311 11.9538 47.5614 10.5151C48.7175 9.07647 50.002 8.35715 51.4149 8.35715C52.3398 8.35715 53.0848 8.56267 53.65 8.97371C54.2152 9.35906 54.6262 9.84717 54.8831 10.438C55.1657 11.0032 55.307 11.5556 55.307 12.095C55.307 12.9428 55.0886 13.7649 54.6519 14.5613C54.2408 15.332 53.5729 15.9742 52.6481 16.488C51.7232 16.9762 50.5029 17.2202 48.9872 17.2202C48.3964 17.2202 47.8183 17.3487 47.2532 17.6056C46.688 17.8625 46.1742 18.3506 45.7118 19.0699C45.2493 19.7635 44.8768 20.7526 44.5942 22.0371C44.3373 23.3216 44.2089 24.9915 44.2089 27.0467C44.2089 28.6394 44.4786 29.8083 45.0181 30.5533C43.4253 31.8122 41.961 32.4416 40.6251 32.4416Z" fill="#FFFAB5" style="fill:#FFFAB5;fill:color(display-p3 1.0000 0.9805 0.7079);fill-opacity:1;"/>
<path d="M10.3937 34.9564C8.40507 34.9564 6.61841 34.6301 5.03372 33.9776C3.4801 33.3251 2.25274 32.3618 1.35165 31.0879C0.450549 29.7828 0 28.1515 0 26.194C0 25.0132 0.139825 23.4751 0.419476 21.5797C0.7302 19.6843 1.10307 17.6025 1.53808 15.3342C1.97309 13.0348 2.39257 10.7044 2.79651 8.34292L0.326259 3.35581C2.06631 2.3615 3.72868 1.55361 5.31337 0.932169C6.92913 0.310723 8.62257 0 10.3937 0C11.1394 0 11.7609 0.124291 12.258 0.37287C12.7552 0.621447 13.1591 0.963241 13.4699 1.39825C14.806 0.932169 16.0644 0.590375 17.2451 0.37287C18.4259 0.155362 19.5445 0.0466086 20.601 0.0466086C23.4285 0.0466086 25.79 0.683592 27.6854 1.95756C29.5809 3.23152 30.9946 4.90943 31.9268 6.99127C32.8901 9.07312 33.3717 11.3414 33.3717 13.7961C33.3717 15.7537 33.061 17.7268 32.4395 19.7154C31.8491 21.704 30.9325 23.615 29.6896 25.4482C28.4778 27.2815 26.9552 28.9128 25.122 30.3421C23.2887 31.7715 21.1447 32.9056 18.69 33.7445C16.2353 34.5524 13.4699 34.9564 10.3937 34.9564ZM12.0716 28.1515C14.4331 28.1515 16.4062 27.5612 17.9909 26.3804C19.6066 25.1997 20.8185 23.646 21.6263 21.7196C22.4342 19.7931 22.8382 17.7112 22.8382 15.474C22.8382 12.6775 22.2012 10.4092 20.9272 8.66918C19.6532 6.89806 17.7578 6.0125 15.241 6.0125C14.9613 6.0125 14.6661 6.02803 14.3554 6.0591C14.0447 6.09018 13.7184 6.13679 13.3766 6.19893C13.1902 7.44182 12.9416 8.99544 12.6309 10.8598C12.3513 12.7241 12.025 14.7127 11.6521 16.8257C11.3103 18.9075 10.9685 20.9427 10.6267 22.9314C10.316 24.8889 10.0674 26.5668 9.881 27.9651C10.2539 28.0272 10.6267 28.0738 10.9996 28.1049C11.3725 28.136 11.7298 28.1515 12.0716 28.1515Z" fill="#FFFAB5" style="fill:#FFFAB5;fill:color(display-p3 1.0000 0.9805 0.7079);fill-opacity:1;"/>
</svg>
